<svg width="111" height="60" viewBox="0 0 111 60" fill="none" xmlns="http://www.w3.org/2000/svg">
<g clip-path="url(#clip0_11236_112601)">
<path d="M13.767 40.0008H8.06198L7.00779 42.5395H5.02344L9.98433 31.332H11.9067L16.8056 42.5395H14.7592L13.767 40.0008ZM13.0229 38.3289L10.9145 33.3754L8.80612 38.3289H13.0229Z" fill="#A08B63"/>
<path d="M24.3071 34.0547V35.2931L19.4702 41.0516H24.4931V42.5996L17.1758 42.5377V41.2993L22.0747 35.5408H17.2998V34.0547H24.3071Z" fill="#A08B63"/>
<path d="M31.0048 42.5384V41.4858C30.3847 42.2289 29.3925 42.6004 28.1523 42.6004C26.292 42.6004 25.1758 41.4858 25.1758 39.9378C25.1758 38.3898 26.354 37.3991 28.4004 37.3991H31.0048V37.1515C31.0048 36.0988 30.3227 35.4177 28.9585 35.4177C28.1523 35.4177 27.2842 35.7273 26.416 36.2846L25.6719 34.9843C26.8501 34.3032 27.7182 33.9316 29.3305 33.9316C31.5009 33.9316 32.7411 35.0462 32.8032 36.9038V42.4765H31.0048V42.5384ZM31.0048 39.5663V38.7614H28.7104C27.5322 38.7614 26.9741 39.071 26.9741 39.8759C26.9741 40.6189 27.5942 41.1143 28.6484 41.1143C29.8886 41.1762 30.8808 40.4951 31.0048 39.5663Z" fill="#A08B63"/>
<path d="M43.0351 30.6498V42.5384H41.1747V41.0523C40.5546 42.043 39.5625 42.6003 38.1982 42.6003C35.7178 42.6003 34.1055 40.8046 34.1055 38.204C34.1055 35.6653 35.7798 33.8696 38.1362 33.8696C39.5004 33.8696 40.5546 34.4269 41.1747 35.4176V30.5879H43.0351V30.6498ZM41.1747 38.3278C41.1747 36.656 40.1206 35.5415 38.5703 35.5415C37.02 35.5415 35.9658 36.7179 35.9658 38.3278C35.9658 39.9377 37.02 41.1142 38.5703 41.1142C40.1206 41.1142 41.1747 39.9377 41.1747 38.3278Z" fill="#A08B63"/>
<path d="M47.4385 31.5794C47.4385 32.1986 46.9424 32.6939 46.3843 32.6939C45.7642 32.6939 45.3301 32.1986 45.3301 31.5794C45.3301 30.9602 45.8262 30.4648 46.3843 30.4648C46.9424 30.4648 47.4385 30.9602 47.4385 31.5794ZM47.2524 42.5391H45.3921V34.0562H47.2524V42.5391Z" fill="#A08B63"/>
<path fill-rule="evenodd" clip-rule="evenodd" d="M24.4336 13.375L28.2783 17.5236L29.1464 18.6382L29.9526 19.8146L28.9604 18.8239L27.9062 17.8332L24.4336 13.375Z" fill="#A08B63"/>
<path fill-rule="evenodd" clip-rule="evenodd" d="M26.168 12.1992L28.8965 17.1528L29.4546 18.515L29.9507 19.8153L29.2065 18.5769L28.4624 17.4005L26.168 12.1992Z" fill="#A08B63"/>
<path fill-rule="evenodd" clip-rule="evenodd" d="M28.1523 11.5781L29.6406 17.027L29.7646 18.3893L29.9507 19.8134L29.5166 18.4512L29.0825 17.089L28.1523 11.5781Z" fill="#A08B63"/>
<path fill-rule="evenodd" clip-rule="evenodd" d="M30.3242 11.4551V17.0278L30.1382 18.452L29.9521 19.8142L29.8901 18.3901L29.8281 17.0278L30.3242 11.4551Z" fill="#A08B63"/>
<path fill-rule="evenodd" clip-rule="evenodd" d="M32.4316 11.9492L31.0054 17.2743L30.5093 18.5127L29.9512 19.813L30.2612 18.4508L30.5093 17.0885L32.4316 11.9492Z" fill="#A08B63"/>
<path fill-rule="evenodd" clip-rule="evenodd" d="M34.354 12.9414L31.6255 17.6473L30.8193 18.7618L29.9512 19.8145L30.5713 18.5761L31.1914 17.3996L34.354 12.9414Z" fill="#A08B63"/>
<path fill-rule="evenodd" clip-rule="evenodd" d="M35.9663 14.4277L32.1216 18.2048L31.0674 19.0098L29.9512 19.8147L30.8813 18.824L31.8115 17.8333L35.9663 14.4277Z" fill="#A08B63"/>
<path fill-rule="evenodd" clip-rule="evenodd" d="M37.2065 16.2227L32.4936 18.8852L31.1914 19.3186L29.9512 19.814L31.1294 19.071L32.2456 18.3898L37.2065 16.2227Z" fill="#A08B63"/>
<path fill-rule="evenodd" clip-rule="evenodd" d="M37.9506 18.3281L32.6797 19.5665L31.3154 19.6904L29.9512 19.8142L31.2534 19.4427L32.5556 19.0712L37.9506 18.3281Z" fill="#A08B63"/>
<path fill-rule="evenodd" clip-rule="evenodd" d="M38.1366 20.495L32.6797 20.3092L31.3154 20.0616L29.9512 19.8139H31.3154L32.6797 19.752L38.1366 20.495Z" fill="#A08B63"/>
<path fill-rule="evenodd" clip-rule="evenodd" d="M37.7646 22.6628L32.4936 20.9909L31.1914 20.4336L29.9512 19.8145L31.3154 20.186L32.6177 20.4956L37.7646 22.6628Z" fill="#A08B63"/>
<path fill-rule="evenodd" clip-rule="evenodd" d="M36.8964 24.5823L32.1216 21.6101L31.0674 20.6813L29.9512 19.8145L31.1914 20.4956L32.3696 21.1767L36.8964 24.5823Z" fill="#A08B63"/>
<path fill-rule="evenodd" clip-rule="evenodd" d="M35.5322 26.1922L31.6255 22.1055L30.7573 20.929L29.9512 19.8145L30.9434 20.8052L31.9975 21.7959L35.5322 26.1922Z" fill="#A08B63"/>
<path fill-rule="evenodd" clip-rule="evenodd" d="M33.7339 27.4306L31.0054 22.4151L30.4473 21.1148L29.9512 19.8145L30.6953 20.9909L31.4394 22.2293L33.7339 27.4306Z" fill="#A08B63"/>
<path fill-rule="evenodd" clip-rule="evenodd" d="M31.7495 28.0497L30.3232 22.6008L30.1372 21.1767L29.9512 19.8145L30.3853 21.1767L30.8193 22.477L31.7495 28.0497Z" fill="#A08B63"/>
<path fill-rule="evenodd" clip-rule="evenodd" d="M29.5781 28.1736V22.5389L29.7642 21.1767L29.9502 19.8145L30.0122 21.1767L30.0742 22.6008L29.5781 28.1736Z" fill="#A08B63"/>
<path fill-rule="evenodd" clip-rule="evenodd" d="M27.4707 27.6782L28.897 22.3532L29.4551 21.0528L29.9512 19.8145L29.6411 21.1767L29.3931 22.5389L27.4707 27.6782Z" fill="#A08B63"/>
<path fill-rule="evenodd" clip-rule="evenodd" d="M25.5488 26.6875L28.2773 21.9197L29.1455 20.8671L29.9516 19.8145L29.3315 20.9909L28.7114 22.2293L25.5488 26.6875Z" fill="#A08B63"/>
<path fill-rule="evenodd" clip-rule="evenodd" d="M23.9375 25.2015L27.7822 21.4244L28.8984 20.6194L29.9526 19.8145L29.0224 20.8052L28.1543 21.7959L23.9375 25.2015Z" fill="#A08B63"/>
<path fill-rule="evenodd" clip-rule="evenodd" d="M22.6953 23.3439L27.4082 20.7432L28.7104 20.3098L29.9506 19.8145L28.8344 20.4956L27.6562 21.2386L22.6953 23.3439Z" fill="#A08B63"/>
<path fill-rule="evenodd" clip-rule="evenodd" d="M21.9531 21.3005L27.2241 20.0621L28.5883 19.9383L29.9526 19.8145L28.6503 20.186L27.3481 20.5575L21.9531 21.3005Z" fill="#A08B63"/>
<path fill-rule="evenodd" clip-rule="evenodd" d="M21.7656 19.0703L27.2226 19.318L28.5869 19.5657L29.9511 19.8133H28.5869H27.2226L21.7656 19.0703Z" fill="#A08B63"/>
<path fill-rule="evenodd" clip-rule="evenodd" d="M22.1367 16.9648L27.4077 18.6367L28.7099 19.1939L29.9501 19.8131L28.5859 19.4416L27.2836 19.132L22.1367 16.9648Z" fill="#A08B63"/>
<path fill-rule="evenodd" clip-rule="evenodd" d="M23.0684 14.9844L27.7812 18.0184L28.8974 18.8853L29.9516 19.8141L28.7114 19.133L27.5332 18.4519L23.0684 14.9844Z" fill="#A08B63"/>
<path fill-rule="evenodd" clip-rule="evenodd" d="M27.0992 11.8897C27.2853 11.7659 27.5333 11.8897 27.6573 12.0755C27.7814 12.2612 27.6573 12.5089 27.4713 12.6327C27.2853 12.7566 27.0372 12.6327 26.9132 12.447C26.7892 12.1993 26.9132 11.9516 27.0992 11.8897Z" fill="#A08B63"/>
<path fill-rule="evenodd" clip-rule="evenodd" d="M29.1464 11.4554C29.3945 11.3934 29.5805 11.5792 29.6425 11.8269C29.7045 12.0746 29.5805 12.2603 29.3325 12.3222C29.0844 12.3842 28.8984 12.1984 28.8364 12.0126C28.7744 11.703 28.9604 11.5173 29.1464 11.4554Z" fill="#A08B63"/>
<path fill-rule="evenodd" clip-rule="evenodd" d="M31.3169 11.6406C31.5649 11.6406 31.689 11.8883 31.689 12.0741C31.689 12.3217 31.5029 12.5075 31.2549 12.4456C31.0068 12.4456 30.8828 12.1979 30.8828 12.0121C30.8828 11.7645 31.0688 11.6406 31.3169 11.6406Z" fill="#A08B63"/>
<path fill-rule="evenodd" clip-rule="evenodd" d="M33.3013 12.3845C33.4873 12.4464 33.6113 12.6941 33.5493 12.9418C33.4873 13.1276 33.2393 13.2514 33.0532 13.1895C32.8672 13.1276 32.7432 12.8799 32.8052 12.6322C32.8672 12.3845 33.1152 12.2607 33.3013 12.3845Z" fill="#A08B63"/>
<path fill-rule="evenodd" clip-rule="evenodd" d="M35.1617 13.6236C35.3477 13.7475 35.4097 13.9951 35.2857 14.1809C35.1617 14.3667 34.9136 14.4286 34.7276 14.3047C34.5416 14.1809 34.4796 13.9332 34.6036 13.7475C34.6656 13.4998 34.9757 13.4379 35.1617 13.6236Z" fill="#A08B63"/>
<path fill-rule="evenodd" clip-rule="evenodd" d="M36.5867 15.2322C36.7727 15.418 36.7107 15.6656 36.5867 15.8514C36.4006 15.9752 36.1526 15.9752 36.0286 15.7895C35.9045 15.6037 35.9045 15.3561 36.0286 15.1703C36.1526 15.0465 36.4626 15.0465 36.5867 15.2322Z" fill="#A08B63"/>
<path fill-rule="evenodd" clip-rule="evenodd" d="M37.5792 17.2141C37.7032 17.3999 37.5792 17.6476 37.3932 17.7714C37.2071 17.8952 36.9591 17.7714 36.8351 17.5856C36.7111 17.3999 36.8351 17.1522 37.0211 17.0284C37.2692 16.9045 37.5172 17.0284 37.5792 17.2141Z" fill="#A08B63"/>
<path fill-rule="evenodd" clip-rule="evenodd" d="M38.0739 19.3803C38.1359 19.6279 38.0119 19.8137 37.7638 19.8756C37.5158 19.9375 37.3298 19.7518 37.2678 19.566C37.2057 19.3183 37.3298 19.1326 37.5778 19.0707C37.8259 18.9468 38.0119 19.1326 38.0739 19.3803Z" fill="#A08B63"/>
<path fill-rule="evenodd" clip-rule="evenodd" d="M38.0132 21.5467C38.0132 21.7944 37.8271 21.9182 37.5791 21.9182C37.3311 21.9182 37.207 21.6706 37.207 21.4848C37.207 21.2371 37.3931 21.1133 37.6411 21.1133C37.8271 21.1133 38.0132 21.299 38.0132 21.5467Z" fill="#A08B63"/>
<path fill-rule="evenodd" clip-rule="evenodd" d="M37.3931 23.591C37.3311 23.8386 37.083 23.9006 36.897 23.8386C36.711 23.7767 36.5869 23.529 36.6489 23.2814C36.711 23.0956 36.959 22.9718 37.145 23.0337C37.3311 23.0956 37.4551 23.3433 37.3931 23.591Z" fill="#A08B63"/>
<path fill-rule="evenodd" clip-rule="evenodd" d="M36.2779 25.3873C36.1539 25.5731 35.9058 25.635 35.7198 25.5112C35.5338 25.3873 35.4718 25.1397 35.5958 24.9539C35.7198 24.7681 35.9678 24.7062 36.1539 24.8301C36.3399 24.9539 36.4019 25.2016 36.2779 25.3873Z" fill="#A08B63"/>
<path fill-rule="evenodd" clip-rule="evenodd" d="M34.7253 26.8104C34.5393 26.9342 34.2913 26.9342 34.1672 26.7485C34.0432 26.5627 34.0432 26.315 34.1672 26.1293C34.3533 26.0054 34.6013 26.0054 34.7253 26.1912C34.9114 26.377 34.8494 26.6246 34.7253 26.8104Z" fill="#A08B63"/>
<path fill-rule="evenodd" clip-rule="evenodd" d="M32.8033 27.7402C32.6173 27.864 32.3693 27.7402 32.2452 27.5544C32.1212 27.3686 32.2452 27.121 32.4313 26.9971C32.6173 26.8733 32.8653 26.9971 32.9894 27.1829C33.1134 27.3686 33.0514 27.6163 32.8033 27.7402Z" fill="#A08B63"/>
<path fill-rule="evenodd" clip-rule="evenodd" d="M30.758 28.112C30.5099 28.1739 30.3239 27.9882 30.2619 27.8024C30.1999 27.5547 30.3239 27.369 30.572 27.3071C30.82 27.2451 31.006 27.4309 31.068 27.6167C31.1301 27.8643 30.944 28.112 30.758 28.112Z" fill="#A08B63"/>
<path fill-rule="evenodd" clip-rule="evenodd" d="M28.6494 27.9885C28.4014 27.9885 28.2773 27.7409 28.2773 27.5551C28.2773 27.3074 28.4634 27.1836 28.7114 27.1836C28.9595 27.1836 29.0835 27.4313 29.0835 27.617C29.0215 27.8028 28.8354 27.9885 28.6494 27.9885Z" fill="#A08B63"/>
<path fill-rule="evenodd" clip-rule="evenodd" d="M29.2693 19.0096C29.7034 18.6381 30.3235 18.7 30.7576 19.1334C31.1296 19.5668 31.1296 20.248 30.6956 20.6195C30.2615 20.991 29.6414 20.9291 29.2073 20.4956C28.8352 20.0622 28.8352 19.3811 29.2693 19.0096Z" fill="#A08B63"/>
<path fill-rule="evenodd" clip-rule="evenodd" d="M36.2157 14.2408C33.6733 11.2686 29.6425 10.4017 26.418 11.8259V12.5689C29.4565 11.0829 33.3012 11.8878 35.7817 14.6742C38.6962 18.0798 38.5101 23.1572 35.2856 26.0055C32.8051 28.2346 29.2705 28.4203 26.418 26.8723V27.6154C29.4565 29.1634 33.1152 28.8538 35.7196 26.5627C39.1303 23.3429 39.3783 17.894 36.2157 14.2408Z" fill="#A08B63"/>
<path d="M58.2905 46.4393L55.3139 42.4764L53.8257 44.1482V46.4393H52.2754V37.4609H53.8257V42.1049L58.1044 37.4609H59.8408L56.3681 41.238L60.0888 46.4393H58.2905Z" fill="#A08B63"/>
<path d="M65.1743 46.4389V45.6339C64.6782 46.2531 63.872 46.5627 62.9419 46.5627C61.4536 46.5627 60.5234 45.6339 60.5234 44.4575C60.5234 43.2191 61.4536 42.4141 63.1279 42.4141H65.1743V42.1045C65.1743 41.2377 64.6162 40.7423 63.562 40.7423C62.8799 40.7423 62.1977 40.99 61.5156 41.4234L60.8955 40.3708C61.8257 39.8135 62.5698 39.5039 63.81 39.5039C65.5463 39.5039 66.5385 40.3708 66.6005 41.9188V46.377H65.1743V46.4389ZM65.1743 44.024V43.4048H63.3139C62.3218 43.4048 61.8877 43.6525 61.8877 44.3336C61.8877 44.9528 62.3838 45.3243 63.1899 45.3243C64.3061 45.3243 65.1123 44.7671 65.1743 44.024Z" fill="#A08B63"/>
<path d="M40.8027 48.7305L44.5234 56.1608L48.182 48.7305H50.4145V59.9379H48.6781V51.5788L45.1435 58.7614H43.9033L40.3066 51.5788V59.9379H38.5703V48.7305H40.8027Z" fill="#A08B63"/>
<path d="M57.9814 59.9388V58.8862C57.3613 59.6292 56.3691 60.0008 55.1289 60.0008C53.2685 60.0008 52.1523 58.8862 52.1523 57.3382C52.1523 55.7902 53.3306 54.7995 55.3769 54.7995H57.9814V54.5518C57.9814 53.4992 57.2993 52.8181 55.935 52.8181C55.1289 52.8181 54.2607 53.1277 53.3926 53.685L52.6484 52.3847C53.8266 51.7035 54.6948 51.332 56.3071 51.332C58.4775 51.332 59.7177 52.4466 59.7797 54.3042V59.8769H57.9814V59.9388ZM57.9814 56.9667V56.1618H55.687C54.5088 56.1618 53.9507 56.4713 53.9507 57.2763C53.9507 58.0193 54.5708 58.5147 55.625 58.5147C56.8652 58.5766 57.9194 57.8955 57.9814 56.9667Z" fill="#A08B63"/>
<path d="M70.1347 54.6142V59.9393H68.2744V55.1715C68.2744 53.8712 67.5302 53.1282 66.228 53.1282C64.6777 53.1282 63.8096 54.3047 63.8096 55.7907V60.0012H61.9492V48.0508H63.8096V53.0663C64.4297 51.8898 65.4839 51.3325 66.9721 51.3325C68.9565 51.3325 70.1347 52.6328 70.1347 54.6142Z" fill="#A08B63"/>
<path d="M80.3671 55.6664C80.3671 58.267 78.5688 60.0008 75.9023 60.0008C73.2358 60.0008 71.4375 58.267 71.4375 55.6664C71.4375 53.1277 73.2358 51.332 75.9023 51.332C78.5068 51.332 80.3671 53.1277 80.3671 55.6664ZM73.2978 55.7283C73.2978 57.4001 74.352 58.5147 75.9023 58.5147C77.4526 58.5147 78.5068 57.4001 78.5068 55.7283C78.5068 54.1184 77.4526 52.9419 75.9023 52.9419C74.352 52.9419 73.2978 54.0565 73.2978 55.7283Z" fill="#A08B63"/>
<path d="M86.6914 59.3811C86.0092 59.7527 85.3271 60.0003 84.583 60.0003C83.2807 60.0003 82.1645 59.2573 82.1645 57.5236V53.1273H80.9863V51.765H82.1645V49.4121H84.0249V51.765H86.5673V53.1273H84.0249V57.214C84.0249 58.0808 84.3349 58.3904 84.955 58.3904C85.3271 58.3904 85.7612 58.2666 86.2573 58.0189L86.6914 59.3811Z" fill="#A08B63"/>
<path d="M90.4126 52.8167C89.6684 52.8167 89.1723 53.0644 89.1723 53.6836C89.1723 55.2316 93.6992 54.4266 93.6992 57.5226C93.6992 59.2564 92.1489 60.0613 90.4126 60.0613C89.1723 60.0613 87.8081 59.6279 87.002 58.8848L87.6841 57.5845C88.4282 58.2656 89.6064 58.6372 90.5366 58.6372C91.3427 58.6372 91.9628 58.3895 91.9628 57.7084C91.9628 55.9746 87.498 56.9653 87.498 53.8694C87.498 52.1356 88.9863 51.3926 90.6606 51.3926C91.7148 51.3926 92.893 51.7022 93.6371 52.2595L92.955 53.6217C92.0869 53.1263 91.1567 52.8167 90.4126 52.8167Z" fill="#A08B63"/>
<path d="M100.272 59.9388V58.8862C99.6523 59.6292 98.6601 60.0008 97.4199 60.0008C95.5596 60.0008 94.4434 58.8862 94.4434 57.3382C94.4434 55.7902 95.6216 54.7995 97.6679 54.7995H100.272V54.5518C100.272 53.4992 99.5903 52.8181 98.226 52.8181C97.4199 52.8181 96.5517 53.1277 95.6836 53.685L94.9395 52.3847C96.1177 51.7035 96.9858 51.332 98.5981 51.332C100.769 51.332 102.009 52.4466 102.071 54.3042V59.8769H100.272V59.9388ZM100.21 56.9667V56.1618H97.916C96.7378 56.1618 96.1797 56.4713 96.1797 57.2763C96.1797 58.0193 96.7998 58.5147 97.854 58.5147C99.1562 58.5766 100.148 57.8955 100.21 56.9667Z" fill="#A08B63"/>
<path d="M104.489 51.3926L106.845 58.1418L109.202 51.3926H111L107.775 59.9375H105.853L102.566 51.3926H104.489Z" fill="#A08B63"/>
<path d="M6.94525 53.3744H2.41844L1.55028 55.4178H0L3.96872 46.4395H5.51899L9.4257 55.4178H7.81341L6.94525 53.3744ZM6.38715 52.0122L4.71285 48.0494L2.97654 52.0122H6.38715Z" fill="#A08B63"/>
<path d="M21.642 51.1463V55.4188H20.1537V51.5798C20.1537 50.5271 19.5336 49.9079 18.5414 49.9079C17.3632 49.9699 16.6811 50.8367 16.6811 52.0132V55.3569H15.1928V51.5179C15.1928 50.4652 14.5727 49.846 13.5805 49.846C12.4023 49.9079 11.6582 50.7748 11.6582 51.9513V55.2949H10.1699V48.4838H11.6582V49.7841C12.1543 48.7934 13.0224 48.4219 14.1386 48.4219C15.3789 48.4219 16.185 49.0411 16.4951 50.0937C16.9291 48.9792 17.8593 48.4219 19.0995 48.4219C20.7118 48.5457 21.642 49.5364 21.642 51.1463Z" fill="#A08B63"/>
<path d="M27.1611 48.5449V49.9691C25.7969 49.9071 24.9287 50.7121 24.8047 51.8886V55.4799H23.3164V48.6688H24.8047V50.031C25.2388 49.0403 26.0449 48.5449 27.1611 48.5449Z" fill="#A08B63"/>
<path d="M29.6426 46.6247C29.6426 47.12 29.2705 47.4916 28.7744 47.4916C28.2783 47.4916 27.9062 47.12 27.9062 46.6247C27.9062 46.1293 28.2783 45.7578 28.7744 45.7578C29.2705 45.7578 29.6426 46.1293 29.6426 46.6247ZM29.5185 55.4173H28.0303V48.6061H29.5185V55.4173Z" fill="#A08B63"/>
<path d="M35.2216 54.9837C34.6635 55.2933 34.1054 55.4791 33.5473 55.4791C32.4931 55.4791 31.625 54.8599 31.625 53.4976V49.9682H30.6328V48.8537H31.625V46.9961H33.1133V48.8537H35.1596V49.9682H33.1133V53.25C33.1133 53.9311 33.3613 54.1788 33.8574 54.1788C34.1674 54.1788 34.4775 54.0549 34.9116 53.8692L35.2216 54.9837Z" fill="#A08B63"/>
<path fill-rule="evenodd" clip-rule="evenodd" d="M89.7295 9.53637C89.2334 9.28869 88.9233 9.47445 88.5513 9.66021C85.4507 11.0844 82.3501 11.0224 79.0636 10.0317C76.4591 9.28869 73.7926 8.60758 71.0641 8.3599C66.1652 7.92647 61.8244 9.66021 57.6077 11.7655C55.7473 12.6943 53.949 13.685 51.9027 14.1803C50.1043 14.6138 49.4222 13.8707 49.7943 12.0751C50.1043 10.5271 49.7323 9.90789 48.244 9.41253C47.8719 9.28869 47.4378 9.16486 47.0038 9.10294C41.7948 8.48374 36.6479 9.22677 31.563 10.4652L31.1289 10.6509C31.1289 10.6509 36.8339 10.2794 39.3144 15.2949C42.477 14.7995 45.6395 14.9234 48.8021 15.4187C50.1043 15.6045 50.6004 16.2856 50.1043 17.5859C49.9183 18.0813 49.7943 18.7005 49.7943 19.2577C49.6703 20.9296 50.4144 21.6107 52.0887 21.2392C52.6468 21.1153 53.2049 20.9296 53.701 20.6819C55.9954 19.5673 58.2898 18.5147 60.3982 17.0906C62.6306 15.5426 65.049 14.5519 67.8395 14.3042C71.4982 13.9327 75.1568 14.1803 78.8155 14.0565C81.9781 13.9327 85.1407 13.5611 87.8071 11.6416C88.5513 11.0224 89.4194 10.5271 89.7295 9.53637Z" fill="#F7941D"/>
<path fill-rule="evenodd" clip-rule="evenodd" d="M89.7305 21.052C89.2344 20.8043 88.9243 20.9901 88.5523 21.1758C85.4517 22.6 82.3512 22.5381 79.0646 21.5474C76.4601 20.8043 73.7936 20.1232 71.0651 19.8755C66.1662 19.4421 61.8255 21.1758 57.6087 23.2811C55.7484 24.2099 53.95 25.2006 51.9037 25.696C50.1053 26.1294 49.4232 25.3864 49.7953 23.5907C50.1053 22.0427 49.7333 21.4235 48.245 20.9282C47.8729 20.8043 47.4389 20.6805 47.0048 20.6186C44.8344 20.3709 42.664 20.309 40.4936 20.4947C40.4316 21.2997 39.8115 25.4483 35.9668 27.5535C36.4629 27.4297 36.897 27.3059 37.3931 27.182C41.1757 26.3152 45.0204 26.3771 48.8651 26.8724C50.1674 27.0582 50.6634 27.7393 50.1674 29.0396C49.9813 29.535 49.8573 30.1542 49.8573 30.7114C49.7333 32.3833 50.4774 33.0644 52.1517 32.6929C52.7098 32.569 53.2679 32.3833 53.764 32.1356C56.0584 31.021 58.3528 29.9684 60.4612 28.5443C62.6936 26.9963 65.1121 26.0056 67.9026 25.7579C71.5612 25.3864 75.2199 25.634 78.8785 25.5102C82.0411 25.3864 85.2037 25.0148 87.8702 23.0953C88.5523 22.6 89.4204 22.1046 89.7305 21.052Z" fill="#00A24E"/>
<path fill-rule="evenodd" clip-rule="evenodd" d="M5.76562 0V2.47678H20.5243L8.12205 25.2012L10.1064 26.6254L24.9271 0H5.76562Z" fill="#A08B63"/>
<path fill-rule="evenodd" clip-rule="evenodd" d="M38.9432 0H27.4711L19.0996 15.0464L21.022 16.0372L28.7113 2.47678H38.9432V0Z" fill="#A08B63"/>
</g>
<defs>
<clipPath id="clip0_11236_112601">
<rect width="111" height="60" fill="white"/>
</clipPath>
</defs>
</svg>
