<svg width="168" height="53" viewBox="0 0 168 53" fill="none" xmlns="http://www.w3.org/2000/svg">
<path fill-rule="evenodd" clip-rule="evenodd" d="M9.61587 50.5518C10.6387 42.951 13.8848 42.3479 18.094 39.8175C29.8168 32.7596 25.3094 15.7442 9.07458 21.0569C20.4992 20.2723 23.5659 32.0958 15.9894 36.9216C8.41291 41.7473 9.43571 45.5453 9.61587 50.5518Z" fill="#138808"/>
<path fill-rule="evenodd" clip-rule="evenodd" d="M18.8165 0C17.6135 7.54087 14.3067 8.08311 10.037 10.436C-1.92888 17.1323 1.97975 34.2638 18.4553 29.4989C7.03076 29.8612 4.2645 17.9753 12.0212 13.3919C19.7779 8.80847 18.8762 5.00646 18.8157 0H18.8165Z" fill="#FF9933"/>
<path fill-rule="evenodd" clip-rule="evenodd" d="M19.1767 39.8133C34.5099 32.6308 26.3362 13.0896 9.01489 20.3282C24.769 15.9855 31.3841 30.525 19.1767 39.8133Z" fill="#138808"/>
<path fill-rule="evenodd" clip-rule="evenodd" d="M8.95434 10.376C-6.62355 17.0723 0.956904 36.919 18.5151 30.2227C2.58078 34.0231 -3.55282 19.3036 8.95434 10.376Z" fill="#FF9933"/>
<path fill-rule="evenodd" clip-rule="evenodd" d="M9.43591 22.4406C14.3665 21.4753 20.3798 24.3104 19.2374 31.0068C19.1776 31.1275 19.1776 31.429 19.0572 31.429C18.9368 31.429 18.6363 31.6098 18.6363 31.489C18.6989 31.1705 18.7391 30.8479 18.7567 30.5237C18.8771 29.7999 18.6363 28.5331 17.5537 28.5331C16.4711 28.5331 15.6899 28.7139 14.7277 28.2916C13.4496 27.8015 12.3046 27.0163 11.3852 25.9997C10.4659 24.983 9.79809 23.7635 9.43591 22.4398V22.4406Z" fill="white"/>
<path fill-rule="evenodd" clip-rule="evenodd" d="M10.9991 23.6465C14.3665 24.6726 16.7716 26.1801 17.7936 27.8092C15.8711 25.9248 13.5482 24.5016 10.9991 23.6465Z" fill="#5757DE"/>
<path fill-rule="evenodd" clip-rule="evenodd" d="M43.3449 27.2671H33.0659C33.1939 28.1123 33.6209 28.8831 34.2689 29.4384C34.9685 29.9917 35.845 30.2705 36.7346 30.223C37.3054 30.235 37.8725 30.1286 38.4005 29.9106C38.9284 29.6927 39.4059 29.3677 39.8029 28.9562L42.4488 30.283C41.8276 31.1702 41.0026 31.8943 40.0437 32.3943C39.0046 32.8578 37.8761 33.0845 36.7393 33.0581C35.8431 33.0974 34.9483 32.9517 34.1105 32.6301C33.2727 32.3085 32.5096 31.8178 31.8685 31.1883C31.2472 30.5656 30.761 29.8208 30.4403 29.0007C30.1195 28.1806 29.9712 27.3029 30.0046 26.4226C29.9738 25.5335 30.123 24.6475 30.4434 23.818C30.7638 22.9885 31.2486 22.2329 31.8685 21.5968C32.4862 20.9657 33.2266 20.4686 34.0438 20.1365C34.861 19.8044 35.7375 19.6443 36.6189 19.6662C37.519 19.6384 38.4154 19.7953 39.2529 20.1273C40.0905 20.4593 40.8516 20.9593 41.4898 21.5968C42.1281 22.2695 42.6228 23.066 42.9433 23.9374C43.2638 24.8087 43.4034 25.7366 43.3536 26.6641L43.3449 27.2671ZM40.1578 24.7335C39.9637 24.0311 39.5128 23.4279 38.895 23.0444C38.223 22.5945 37.4286 22.3646 36.621 22.3862C35.8135 22.4078 35.0324 22.68 34.3853 23.1652C33.8882 23.5918 33.4971 24.1288 33.2429 24.7335H40.1578ZM54.8899 17.7964L52.4848 19.9677C51.6429 18.7609 50.7413 18.2187 49.8995 18.2187C49.5158 18.201 49.1365 18.3066 48.8169 18.5202C48.689 18.6074 48.5841 18.7243 48.5108 18.8608C48.4375 18.9974 48.3981 19.1497 48.396 19.3047C48.4045 19.6111 48.5097 19.9068 48.6965 20.1493C49.4366 20.9574 50.241 21.7039 51.1016 22.3814C51.9066 22.9918 52.669 23.6569 53.3832 24.372C53.9758 24.9234 54.4646 25.5774 54.8262 26.3026C55.0726 26.9367 55.1952 27.6126 55.1873 28.2932C55.2052 28.9453 55.086 29.594 54.8373 30.1968C54.5887 30.7997 54.2163 31.3432 53.7444 31.7921C52.6929 32.7387 51.3141 33.2353 49.9026 33.1757C48.774 33.2003 47.664 32.8852 46.7154 32.2712C45.7103 31.5371 44.904 30.5625 44.3701 29.4361L47.1363 27.747C47.9782 29.3153 48.9404 30.0359 50.023 30.0359C50.274 30.0534 50.526 30.0196 50.7637 29.9368C51.0014 29.8539 51.22 29.7236 51.4061 29.5537C51.5916 29.4261 51.7434 29.255 51.8481 29.0553C51.9528 28.8556 52.0075 28.6333 52.0072 28.4076C52.0035 27.9882 51.8547 27.5831 51.5863 27.2616C51.0143 26.5879 50.3688 25.9809 49.6619 25.4517C48.2836 24.4383 47.0496 23.2409 45.994 21.8928C45.5013 21.161 45.2297 20.3021 45.2119 19.4192C45.2001 18.8411 45.312 18.2671 45.5401 17.7361C45.7683 17.205 46.1074 16.7293 46.5345 16.341C46.9762 15.9015 47.5027 15.5572 48.0817 15.3291C48.6607 15.1009 49.2801 14.9938 49.9018 15.0142C50.7584 15.0272 51.6011 15.2333 52.3675 15.6172C53.3277 16.192 54.1806 16.9293 54.8899 17.7964ZM66.9761 19.9677H70.1633V32.7542H66.9753V31.3667C66.4086 31.9092 65.7589 32.3571 65.0509 32.6935C64.3988 32.9456 63.7041 33.0687 63.0053 33.0557C62.1963 33.0667 61.3948 32.8995 60.6572 32.566C59.9196 32.2324 59.2639 31.7406 58.7364 31.1251C58.1346 30.4912 57.665 29.7432 57.3553 28.9248C57.0455 28.1064 56.9017 27.2343 56.9323 26.3594C56.8832 24.5874 57.5063 22.8627 58.6758 21.5337C59.2116 20.9325 59.8703 20.4543 60.607 20.1317C61.3437 19.809 62.141 19.6494 62.9448 19.6639C63.6876 19.6523 64.4247 19.7962 65.1091 20.0861C65.7922 20.4088 66.421 20.8362 66.973 21.353L66.9761 19.9677ZM63.6088 22.6221C63.1478 22.6 62.6876 22.6805 62.2613 22.8579C61.835 23.0353 61.4531 23.3052 61.1431 23.6482C60.4577 24.3817 60.0899 25.3577 60.1203 26.3626C60.0964 27.3664 60.4632 28.34 61.1431 29.0769C61.4557 29.4166 61.838 29.6843 62.2637 29.8614C62.6894 30.0386 63.1483 30.121 63.6088 30.103C64.0698 30.1252 64.53 30.0446 64.9563 29.8672C65.3826 29.6898 65.7645 29.4199 66.0745 29.0769C66.4271 28.7106 66.7001 28.2747 66.8762 27.797C67.0522 27.3193 67.1275 26.8102 67.0973 26.3018C67.1255 25.8118 67.0488 25.3213 66.8724 24.8635C66.696 24.4057 66.4239 23.991 66.0745 23.6474C65.7645 23.3044 65.3826 23.0345 64.9563 22.8571C64.53 22.6797 64.0698 22.6 63.6088 22.6221ZM72.9288 19.9677H76.1159V21.2945C76.709 20.7742 77.3782 20.3483 78.1001 20.0317C78.6692 19.7844 79.2841 19.661 79.9042 19.6694C80.4992 19.6482 81.0918 19.7557 81.6418 19.9847C82.1917 20.2136 82.6861 20.5586 83.0914 20.9962C83.5006 21.439 83.8135 21.9624 84.0102 22.5331C84.2069 23.1038 84.283 23.7094 84.2337 24.3112V32.7566H81.0466V27.1463C81.0834 26.1376 81.0231 25.1276 80.8664 24.1305C80.7288 23.6922 80.4802 23.2974 80.1449 22.9844C79.77 22.7389 79.3299 22.6127 78.8822 22.6221C78.2646 22.5986 77.6617 22.8146 77.1985 23.2251C76.7048 23.7184 76.3696 24.3488 76.2363 25.035C76.1416 25.8961 76.1014 26.7624 76.1159 27.6286V32.759H72.9288V19.9677ZM86.7593 19.9677H89.9488V33.1757C89.9906 34.0949 89.8683 35.0141 89.5877 35.8901C89.3634 36.4626 88.9633 36.9486 88.4453 37.2776C87.8827 37.6137 87.2359 37.7811 86.5814 37.7599C85.7809 37.7113 84.9912 37.5489 84.2361 37.2776V34.744C84.6424 34.9674 85.0956 35.0915 85.5587 35.1063C85.7267 35.1205 85.8957 35.0952 86.0522 35.0323C86.2088 34.9694 86.3485 34.8707 86.4603 34.744C86.6935 34.3209 86.798 33.8385 86.7608 33.3565L86.7593 19.9677ZM105.4 27.2671H95.1186C95.2466 28.1123 95.6736 28.8831 96.3216 29.4384C97.0212 29.9917 97.8977 30.2705 98.7873 30.223C99.3581 30.235 99.9252 30.1286 100.453 29.9106C100.981 29.6927 101.459 29.3677 101.856 28.9562L104.502 30.283C103.88 31.1702 103.055 31.8943 102.096 32.3943C101.056 32.8521 99.9283 33.0786 98.792 33.0581C97.8958 33.0974 97.001 32.9517 96.1632 32.6301C95.3254 32.3085 94.5623 31.8178 93.9212 31.1883C93.2999 30.5656 92.8137 29.8208 92.493 29.0007C92.1722 28.1806 92.0239 27.3029 92.0573 26.4226C92.0265 25.5335 92.1757 24.6475 92.4961 23.818C92.8165 22.9885 93.3013 22.2329 93.9212 21.5968C94.5296 20.9703 95.2598 20.4757 96.0665 20.1436C96.8732 19.8115 97.7392 19.649 98.611 19.6662C99.5207 19.6338 100.427 19.7883 101.275 20.1203C102.123 20.4523 102.894 20.9548 103.542 21.5968C104.18 22.2695 104.675 23.066 104.995 23.9374C105.316 24.8087 105.455 25.7366 105.406 26.6641L105.4 27.2671ZM102.213 24.7335C101.995 24.0433 101.549 23.4477 100.95 23.0444C100.316 22.5998 99.5589 22.3675 98.7857 22.3806C97.9354 22.3515 97.1031 22.63 96.4404 23.1652C95.9439 23.591 95.5531 24.1268 95.2988 24.7303L102.213 24.7335ZM120.312 27.2671H110.031C110.159 28.1123 110.586 28.8831 111.234 29.4384C111.933 29.9917 112.81 30.2705 113.7 30.223C114.269 30.228 114.834 30.1185 115.361 29.9009C115.888 29.6833 116.367 29.3621 116.768 28.9562L119.414 30.283C118.793 31.1701 117.968 31.8943 117.009 32.3943C115.968 32.8521 114.841 33.0786 113.704 33.0581C112.808 33.0974 111.913 32.9517 111.075 32.6301C110.238 32.3085 109.475 31.8178 108.833 31.1883C108.212 30.5656 107.726 29.8208 107.405 29.0007C107.085 28.1806 106.936 27.3029 106.97 26.4226C106.939 25.5335 107.088 24.6475 107.408 23.818C107.729 22.9885 108.214 22.2329 108.833 21.5968C109.442 20.9703 110.172 20.4757 110.979 20.1436C111.785 19.8115 112.652 19.649 113.523 19.6662C114.433 19.6338 115.34 19.7883 116.188 20.1203C117.035 20.4523 117.807 20.9548 118.454 21.5968C119.092 22.2695 119.587 23.066 119.908 23.9374C120.228 24.8087 120.368 25.7366 120.318 26.6641L120.312 27.2671ZM117.125 24.7335C116.907 24.0433 116.462 23.4477 115.862 23.0444C115.229 22.5998 114.471 22.3675 113.698 22.3806C112.848 22.3515 112.015 22.63 111.353 23.1652C110.856 23.5918 110.464 24.1288 110.21 24.7335H117.125ZM121.094 19.9677H124.341L127.587 27.5086L130.834 19.9677H134.086L128.554 32.7542H126.509L121.094 19.9677ZM144.845 19.9677H148.09V32.7542H144.844V31.3667C144.309 31.92 143.677 32.3698 142.98 32.6935C142.326 32.9413 141.633 33.0642 140.934 33.0557C140.125 33.0667 139.324 32.8995 138.586 32.566C137.848 32.2324 137.193 31.7406 136.665 31.1251C136.063 30.4912 135.594 29.7432 135.284 28.9248C134.974 28.1064 134.83 27.2343 134.861 26.3594C134.812 24.5874 135.435 22.8626 136.605 21.5337C137.138 20.9294 137.796 20.449 138.533 20.126C139.271 19.8031 140.069 19.6454 140.874 19.6639C141.597 19.6518 142.315 19.7958 142.978 20.0861C143.677 20.3802 144.311 20.8108 144.842 21.353L144.845 19.9677ZM141.478 22.6221C141.017 22.6042 140.558 22.6866 140.133 22.8637C139.707 23.0409 139.325 23.3085 139.012 23.6482C138.681 24.0144 138.425 24.4428 138.26 24.9087C138.095 25.3746 138.023 25.8688 138.05 26.3626C138.026 27.3664 138.393 28.34 139.073 29.0769C139.383 29.4199 139.765 29.6898 140.191 29.8672C140.617 30.0446 141.077 30.1252 141.538 30.103C141.999 30.121 142.458 30.0386 142.883 29.8614C143.309 29.6843 143.691 29.4166 144.004 29.0769C144.693 28.3214 145.06 27.3253 145.027 26.3018C145.044 25.813 144.962 25.3258 144.786 24.8695C144.611 24.4133 144.344 23.9976 144.004 23.6474C143.682 23.303 143.29 23.0329 142.854 22.8558C142.418 22.6786 141.948 22.5994 141.478 22.6221ZM150.798 19.9677H154.045V21.2945C154.627 20.7882 155.274 20.3622 155.969 20.0277C156.542 19.7917 157.154 19.6686 157.773 19.6655C158.376 19.6509 158.976 19.7612 159.534 19.9895C160.093 20.2178 160.599 20.5591 161.02 20.9922C161.802 21.9109 162.191 23.1023 162.103 24.3073V32.7526H158.976V27.1424C159.035 26.1308 158.954 25.1158 158.735 24.1265C158.639 23.6847 158.408 23.284 158.074 22.9805C157.699 22.735 157.259 22.6087 156.811 22.6182C156.193 22.5947 155.59 22.8106 155.127 23.2212C154.634 23.7145 154.298 24.3449 154.165 25.031C154.038 25.8893 153.998 26.7582 154.045 27.6246V32.755H150.798V19.9677ZM164.447 19.9677H167.634V32.7542H164.447V19.9677Z" fill="#FF9933"/>
<path fill-rule="evenodd" clip-rule="evenodd" d="M82.1946 12.9095C85.5619 12.2457 89.6507 14.1763 88.8695 18.7613C88.8097 18.8213 88.8097 19.0028 88.7491 19.0628C88.6885 19.1228 88.4486 19.1835 88.4486 19.0628C88.4486 18.942 88.5084 18.5197 88.5084 18.399C88.5084 18.2782 88.4486 17.0722 87.6665 17.0722C87.04 17.1715 86.3986 17.1093 85.8027 16.8914C84.9277 16.5658 84.1433 16.0343 83.5155 15.3415C82.8876 14.6488 82.4347 13.815 82.1946 12.9103V12.9095Z" fill="#138808"/>
<path fill-rule="evenodd" clip-rule="evenodd" d="M83.2168 13.7539C85.5621 14.4177 87.1852 15.443 87.9067 16.5291C86.5667 15.2681 84.9651 14.3204 83.2168 13.7539Z" fill="white"/>
<path fill-rule="evenodd" clip-rule="evenodd" d="M159.643 12.9095C163.071 12.2457 167.1 14.1763 166.318 18.7613C166.318 18.8213 166.318 19.0028 166.259 19.0628C166.199 19.1228 165.958 19.1835 165.958 19.0628C165.958 18.942 166.018 18.5197 166.018 18.399C166.018 18.2782 165.958 17.0722 165.176 17.0722C164.529 17.1682 163.869 17.1061 163.252 16.8914C162.382 16.5573 161.602 16.0231 160.975 15.3316C160.349 14.6402 159.892 13.8108 159.643 12.9103V12.9095Z" fill="#138808"/>
<path fill-rule="evenodd" clip-rule="evenodd" d="M160.726 13.7539C163.072 14.4177 164.695 15.443 165.356 16.5291C164.039 15.2692 162.457 14.321 160.726 13.7539Z" fill="white"/>
<path d="M37.3623 42.4561V49.5654H36.1367L32.9482 44.4727V49.5654H31.7227V42.4561H32.9482L36.1465 47.5586V42.4561H37.3623ZM41.6836 48.5059V45.9863C41.6836 45.7975 41.6494 45.6348 41.5811 45.498C41.5127 45.3613 41.4085 45.2555 41.2686 45.1807C41.1318 45.1058 40.9593 45.0684 40.751 45.0684C40.5589 45.0684 40.3929 45.1009 40.2529 45.166C40.113 45.2311 40.0039 45.319 39.9258 45.4297C39.8477 45.5404 39.8086 45.6657 39.8086 45.8057H38.6367C38.6367 45.5973 38.6872 45.3955 38.7881 45.2002C38.889 45.0049 39.0355 44.8307 39.2275 44.6777C39.4196 44.5247 39.6491 44.4043 39.916 44.3164C40.1829 44.2285 40.4824 44.1846 40.8145 44.1846C41.2116 44.1846 41.5632 44.2513 41.8691 44.3848C42.1784 44.5182 42.4209 44.7201 42.5967 44.9902C42.7757 45.2572 42.8652 45.5924 42.8652 45.9961V48.3447C42.8652 48.5856 42.8815 48.8021 42.9141 48.9941C42.9499 49.1829 43.0003 49.3473 43.0654 49.4873V49.5654H41.8594C41.804 49.4385 41.7601 49.2773 41.7275 49.082C41.6982 48.8835 41.6836 48.6914 41.6836 48.5059ZM41.8545 46.3525L41.8643 47.0801H41.0195C40.8014 47.0801 40.6094 47.1012 40.4434 47.1436C40.2773 47.1826 40.139 47.2412 40.0283 47.3193C39.9176 47.3975 39.8346 47.4919 39.7793 47.6025C39.724 47.7132 39.6963 47.8385 39.6963 47.9785C39.6963 48.1185 39.7288 48.2471 39.7939 48.3643C39.859 48.4782 39.9535 48.5677 40.0771 48.6328C40.2041 48.6979 40.3571 48.7305 40.5361 48.7305C40.777 48.7305 40.987 48.6816 41.166 48.584C41.3483 48.4831 41.4915 48.361 41.5957 48.2178C41.6999 48.0713 41.7552 47.9329 41.7617 47.8027L42.1426 48.3252C42.1035 48.4587 42.0368 48.6019 41.9424 48.7549C41.848 48.9079 41.7243 49.0544 41.5713 49.1943C41.4215 49.3311 41.2409 49.4434 41.0293 49.5312C40.821 49.6191 40.5801 49.6631 40.3066 49.6631C39.9616 49.6631 39.654 49.5947 39.3838 49.458C39.1136 49.318 38.902 49.1309 38.749 48.8965C38.596 48.6589 38.5195 48.3903 38.5195 48.0908C38.5195 47.8109 38.5716 47.5635 38.6758 47.3486C38.7832 47.1305 38.9395 46.9482 39.1445 46.8018C39.3529 46.6553 39.6068 46.5446 39.9062 46.4697C40.2057 46.3916 40.5475 46.3525 40.9316 46.3525H41.8545ZM46.5176 44.2822V45.1416H43.5391V44.2822H46.5176ZM44.3984 42.9883H45.5752V48.1055C45.5752 48.2682 45.598 48.3936 45.6436 48.4814C45.6924 48.5661 45.7591 48.623 45.8438 48.6523C45.9284 48.6816 46.0277 48.6963 46.1416 48.6963C46.223 48.6963 46.3011 48.6914 46.376 48.6816C46.4508 48.6719 46.5111 48.6621 46.5566 48.6523L46.5615 49.5508C46.4639 49.5801 46.3499 49.6061 46.2197 49.6289C46.0928 49.6517 45.9463 49.6631 45.7803 49.6631C45.5101 49.6631 45.2708 49.6159 45.0625 49.5215C44.8542 49.4238 44.6914 49.266 44.5742 49.0479C44.457 48.8298 44.3984 48.54 44.3984 48.1787V42.9883ZM48.6855 44.2822V49.5654H47.5039V44.2822H48.6855ZM47.4258 42.8955C47.4258 42.7165 47.4844 42.5684 47.6016 42.4512C47.722 42.3307 47.888 42.2705 48.0996 42.2705C48.3079 42.2705 48.4723 42.3307 48.5928 42.4512C48.7132 42.5684 48.7734 42.7165 48.7734 42.8955C48.7734 43.0713 48.7132 43.2178 48.5928 43.335C48.4723 43.4521 48.3079 43.5107 48.0996 43.5107C47.888 43.5107 47.722 43.4521 47.6016 43.335C47.4844 43.2178 47.4258 43.0713 47.4258 42.8955ZM49.75 46.9824V46.8701C49.75 46.4893 49.8053 46.1361 49.916 45.8105C50.0267 45.4818 50.1862 45.1969 50.3945 44.9561C50.6061 44.7119 50.8633 44.5231 51.166 44.3896C51.472 44.2529 51.8171 44.1846 52.2012 44.1846C52.5885 44.1846 52.9336 44.2529 53.2363 44.3896C53.5423 44.5231 53.8011 44.7119 54.0127 44.9561C54.2243 45.1969 54.3854 45.4818 54.4961 45.8105C54.6068 46.1361 54.6621 46.4893 54.6621 46.8701V46.9824C54.6621 47.3633 54.6068 47.7165 54.4961 48.042C54.3854 48.3675 54.2243 48.6523 54.0127 48.8965C53.8011 49.1374 53.5439 49.3262 53.2412 49.4629C52.9385 49.5964 52.5951 49.6631 52.2109 49.6631C51.8236 49.6631 51.4769 49.5964 51.1709 49.4629C50.8682 49.3262 50.611 49.1374 50.3994 48.8965C50.1878 48.6523 50.0267 48.3675 49.916 48.042C49.8053 47.7165 49.75 47.3633 49.75 46.9824ZM50.9268 46.8701V46.9824C50.9268 47.2201 50.9512 47.4447 51 47.6562C51.0488 47.8678 51.1253 48.0534 51.2295 48.2129C51.3337 48.3724 51.4671 48.4977 51.6299 48.5889C51.7926 48.68 51.9863 48.7256 52.2109 48.7256C52.429 48.7256 52.6178 48.68 52.7773 48.5889C52.9401 48.4977 53.0736 48.3724 53.1777 48.2129C53.2819 48.0534 53.3584 47.8678 53.4072 47.6562C53.4593 47.4447 53.4854 47.2201 53.4854 46.9824V46.8701C53.4854 46.6357 53.4593 46.4144 53.4072 46.2061C53.3584 45.9945 53.2803 45.8073 53.1729 45.6445C53.0687 45.4818 52.9352 45.3548 52.7725 45.2637C52.613 45.1693 52.4225 45.1221 52.2012 45.1221C51.9798 45.1221 51.7878 45.1693 51.625 45.2637C51.4655 45.3548 51.3337 45.4818 51.2295 45.6445C51.1253 45.8073 51.0488 45.9945 51 46.2061C50.9512 46.4144 50.9268 46.6357 50.9268 46.8701ZM56.8154 45.4102V49.5654H55.6387V44.2822H56.7471L56.8154 45.4102ZM56.6055 46.7285L56.2246 46.7236C56.2279 46.3493 56.2799 46.0059 56.3809 45.6934C56.485 45.3809 56.6283 45.1123 56.8105 44.8877C56.9961 44.6631 57.2174 44.4906 57.4746 44.3701C57.7318 44.2464 58.0182 44.1846 58.334 44.1846C58.5879 44.1846 58.8174 44.2204 59.0225 44.292C59.2308 44.3604 59.4082 44.4727 59.5547 44.6289C59.7044 44.7852 59.8184 44.9886 59.8965 45.2393C59.9746 45.4867 60.0137 45.791 60.0137 46.1523V49.5654H58.832V46.1475C58.832 45.8936 58.7946 45.6934 58.7197 45.5469C58.6481 45.3971 58.5423 45.2913 58.4023 45.2295C58.2656 45.1644 58.0947 45.1318 57.8896 45.1318C57.6878 45.1318 57.5072 45.1742 57.3477 45.2588C57.1882 45.3434 57.0531 45.459 56.9424 45.6055C56.835 45.752 56.752 45.9212 56.6934 46.1133C56.6348 46.3053 56.6055 46.5104 56.6055 46.7285ZM64.1934 48.5059V45.9863C64.1934 45.7975 64.1592 45.6348 64.0908 45.498C64.0225 45.3613 63.9183 45.2555 63.7783 45.1807C63.6416 45.1058 63.4691 45.0684 63.2607 45.0684C63.0687 45.0684 62.9027 45.1009 62.7627 45.166C62.6227 45.2311 62.5137 45.319 62.4355 45.4297C62.3574 45.5404 62.3184 45.6657 62.3184 45.8057H61.1465C61.1465 45.5973 61.1969 45.3955 61.2979 45.2002C61.3988 45.0049 61.5452 44.8307 61.7373 44.6777C61.9294 44.5247 62.1589 44.4043 62.4258 44.3164C62.6927 44.2285 62.9922 44.1846 63.3242 44.1846C63.7214 44.1846 64.0729 44.2513 64.3789 44.3848C64.6882 44.5182 64.9307 44.7201 65.1064 44.9902C65.2855 45.2572 65.375 45.5924 65.375 45.9961V48.3447C65.375 48.5856 65.3913 48.8021 65.4238 48.9941C65.4596 49.1829 65.5101 49.3473 65.5752 49.4873V49.5654H64.3691C64.3138 49.4385 64.2699 49.2773 64.2373 49.082C64.208 48.8835 64.1934 48.6914 64.1934 48.5059ZM64.3643 46.3525L64.374 47.0801H63.5293C63.3112 47.0801 63.1191 47.1012 62.9531 47.1436C62.7871 47.1826 62.6488 47.2412 62.5381 47.3193C62.4274 47.3975 62.3444 47.4919 62.2891 47.6025C62.2337 47.7132 62.2061 47.8385 62.2061 47.9785C62.2061 48.1185 62.2386 48.2471 62.3037 48.3643C62.3688 48.4782 62.4632 48.5677 62.5869 48.6328C62.7139 48.6979 62.8669 48.7305 63.0459 48.7305C63.2868 48.7305 63.4967 48.6816 63.6758 48.584C63.8581 48.4831 64.0013 48.361 64.1055 48.2178C64.2096 48.0713 64.265 47.9329 64.2715 47.8027L64.6523 48.3252C64.6133 48.4587 64.5465 48.6019 64.4521 48.7549C64.3577 48.9079 64.234 49.0544 64.0811 49.1943C63.9313 49.3311 63.7507 49.4434 63.5391 49.5312C63.3307 49.6191 63.0898 49.6631 62.8164 49.6631C62.4714 49.6631 62.1637 49.5947 61.8936 49.458C61.6234 49.318 61.4118 49.1309 61.2588 48.8965C61.1058 48.6589 61.0293 48.3903 61.0293 48.0908C61.0293 47.8109 61.0814 47.5635 61.1855 47.3486C61.293 47.1305 61.4492 46.9482 61.6543 46.8018C61.8626 46.6553 62.1165 46.5446 62.416 46.4697C62.7155 46.3916 63.0573 46.3525 63.4414 46.3525H64.3643ZM67.8652 42.0654V49.5654H66.6836V42.0654H67.8652ZM74.4521 42.4561V49.5654H73.2363V42.4561H74.4521ZM76.6836 42.4561V43.4326H71.0244V42.4561H76.6836ZM79.3643 49.6631C78.9736 49.6631 78.6204 49.5996 78.3047 49.4727C77.9922 49.3424 77.7253 49.1618 77.5039 48.9307C77.2858 48.6995 77.1182 48.4277 77.001 48.1152C76.8838 47.8027 76.8252 47.4658 76.8252 47.1045V46.9092C76.8252 46.4958 76.8854 46.1214 77.0059 45.7861C77.1263 45.4508 77.2939 45.1644 77.5088 44.9268C77.7236 44.6859 77.9775 44.502 78.2705 44.375C78.5635 44.248 78.8809 44.1846 79.2227 44.1846C79.6003 44.1846 79.9307 44.248 80.2139 44.375C80.4971 44.502 80.7314 44.681 80.917 44.9121C81.1058 45.14 81.2458 45.4118 81.3369 45.7275C81.4313 46.0433 81.4785 46.3916 81.4785 46.7725V47.2754H77.3965V46.4307H80.3164V46.3379C80.3099 46.1263 80.2676 45.9277 80.1895 45.7422C80.1146 45.5566 79.999 45.4069 79.8428 45.293C79.6865 45.179 79.4782 45.1221 79.2178 45.1221C79.0225 45.1221 78.8483 45.1644 78.6953 45.249C78.5456 45.3304 78.4202 45.4492 78.3193 45.6055C78.2184 45.7617 78.1403 45.9505 78.085 46.1719C78.0329 46.39 78.0068 46.6357 78.0068 46.9092V47.1045C78.0068 47.3356 78.0378 47.5505 78.0996 47.749C78.1647 47.9443 78.2591 48.1152 78.3828 48.2617C78.5065 48.4082 78.6562 48.5238 78.832 48.6084C79.0078 48.6898 79.208 48.7305 79.4326 48.7305C79.7158 48.7305 79.9681 48.6735 80.1895 48.5596C80.4108 48.4456 80.6029 48.2845 80.7656 48.0762L81.3857 48.6768C81.2718 48.8428 81.1237 49.0023 80.9414 49.1553C80.7591 49.305 80.5361 49.4271 80.2725 49.5215C80.012 49.6159 79.7093 49.6631 79.3643 49.6631ZM83.6562 42.0654V49.5654H82.4746V42.0654H83.6562ZM87.2744 49.6631C86.8838 49.6631 86.5306 49.5996 86.2148 49.4727C85.9023 49.3424 85.6354 49.1618 85.4141 48.9307C85.196 48.6995 85.0283 48.4277 84.9111 48.1152C84.7939 47.8027 84.7354 47.4658 84.7354 47.1045V46.9092C84.7354 46.4958 84.7956 46.1214 84.916 45.7861C85.0365 45.4508 85.2041 45.1644 85.4189 44.9268C85.6338 44.6859 85.8877 44.502 86.1807 44.375C86.4736 44.248 86.791 44.1846 87.1328 44.1846C87.5104 44.1846 87.8408 44.248 88.124 44.375C88.4072 44.502 88.6416 44.681 88.8271 44.9121C89.016 45.14 89.1559 45.4118 89.2471 45.7275C89.3415 46.0433 89.3887 46.3916 89.3887 46.7725V47.2754H85.3066V46.4307H88.2266V46.3379C88.2201 46.1263 88.1777 45.9277 88.0996 45.7422C88.0247 45.5566 87.9092 45.4069 87.7529 45.293C87.5967 45.179 87.3883 45.1221 87.1279 45.1221C86.9326 45.1221 86.7585 45.1644 86.6055 45.249C86.4557 45.3304 86.3304 45.4492 86.2295 45.6055C86.1286 45.7617 86.0505 45.9505 85.9951 46.1719C85.943 46.39 85.917 46.6357 85.917 46.9092V47.1045C85.917 47.3356 85.9479 47.5505 86.0098 47.749C86.0749 47.9443 86.1693 48.1152 86.293 48.2617C86.4167 48.4082 86.5664 48.5238 86.7422 48.6084C86.918 48.6898 87.1182 48.7305 87.3428 48.7305C87.626 48.7305 87.8783 48.6735 88.0996 48.5596C88.321 48.4456 88.513 48.2845 88.6758 48.0762L89.2959 48.6768C89.182 48.8428 89.0339 49.0023 88.8516 49.1553C88.6693 49.305 88.4463 49.4271 88.1826 49.5215C87.9222 49.6159 87.6195 49.6631 87.2744 49.6631ZM91.4834 45.3564V49.5654H90.3066V44.2822H91.415L91.4834 45.3564ZM91.293 46.7285L90.8926 46.7236C90.8926 46.359 90.9382 46.0221 91.0293 45.7129C91.1204 45.4036 91.2539 45.1351 91.4297 44.9072C91.6055 44.6761 91.8236 44.4987 92.084 44.375C92.3477 44.248 92.652 44.1846 92.9971 44.1846C93.238 44.1846 93.4577 44.2204 93.6562 44.292C93.8581 44.3604 94.0322 44.4694 94.1787 44.6191C94.3285 44.7689 94.4424 44.9609 94.5205 45.1953C94.6019 45.4297 94.6426 45.7129 94.6426 46.0449V49.5654H93.4658V46.1475C93.4658 45.8903 93.4268 45.6885 93.3486 45.542C93.2738 45.3955 93.1647 45.2913 93.0215 45.2295C92.8815 45.1644 92.7139 45.1318 92.5186 45.1318C92.2972 45.1318 92.1084 45.1742 91.9521 45.2588C91.7992 45.3434 91.6738 45.459 91.5762 45.6055C91.4785 45.752 91.4069 45.9212 91.3613 46.1133C91.3158 46.3053 91.293 46.5104 91.293 46.7285ZM94.5693 46.416L94.0176 46.5381C94.0176 46.2191 94.0615 45.918 94.1494 45.6348C94.2406 45.3483 94.3724 45.0977 94.5449 44.8828C94.7207 44.6647 94.9372 44.4938 95.1943 44.3701C95.4515 44.2464 95.7461 44.1846 96.0781 44.1846C96.3483 44.1846 96.5892 44.222 96.8008 44.2969C97.0156 44.3685 97.1979 44.4824 97.3477 44.6387C97.4974 44.7949 97.6113 44.9984 97.6895 45.249C97.7676 45.4964 97.8066 45.7959 97.8066 46.1475V49.5654H96.625V46.1426C96.625 45.8757 96.5859 45.6689 96.5078 45.5225C96.4329 45.376 96.3255 45.2751 96.1855 45.2197C96.0456 45.1611 95.8779 45.1318 95.6826 45.1318C95.5003 45.1318 95.3392 45.166 95.1992 45.2344C95.0625 45.2995 94.9469 45.3923 94.8525 45.5127C94.7581 45.6299 94.6865 45.765 94.6377 45.918C94.5921 46.071 94.5693 46.237 94.5693 46.416ZM101.347 49.6631C100.956 49.6631 100.603 49.5996 100.287 49.4727C99.9746 49.3424 99.7077 49.1618 99.4863 48.9307C99.2682 48.6995 99.1006 48.4277 98.9834 48.1152C98.8662 47.8027 98.8076 47.4658 98.8076 47.1045V46.9092C98.8076 46.4958 98.8678 46.1214 98.9883 45.7861C99.1087 45.4508 99.2764 45.1644 99.4912 44.9268C99.7061 44.6859 99.96 44.502 100.253 44.375C100.546 44.248 100.863 44.1846 101.205 44.1846C101.583 44.1846 101.913 44.248 102.196 44.375C102.479 44.502 102.714 44.681 102.899 44.9121C103.088 45.14 103.228 45.4118 103.319 45.7275C103.414 46.0433 103.461 46.3916 103.461 46.7725V47.2754H99.3789V46.4307H102.299V46.3379C102.292 46.1263 102.25 45.9277 102.172 45.7422C102.097 45.5566 101.981 45.4069 101.825 45.293C101.669 45.179 101.461 45.1221 101.2 45.1221C101.005 45.1221 100.831 45.1644 100.678 45.249C100.528 45.3304 100.403 45.4492 100.302 45.6055C100.201 45.7617 100.123 45.9505 100.067 46.1719C100.015 46.39 99.9893 46.6357 99.9893 46.9092V47.1045C99.9893 47.3356 100.02 47.5505 100.082 47.749C100.147 47.9443 100.242 48.1152 100.365 48.2617C100.489 48.4082 100.639 48.5238 100.814 48.6084C100.99 48.6898 101.19 48.7305 101.415 48.7305C101.698 48.7305 101.951 48.6735 102.172 48.5596C102.393 48.4456 102.585 48.2845 102.748 48.0762L103.368 48.6768C103.254 48.8428 103.106 49.0023 102.924 49.1553C102.742 49.305 102.519 49.4271 102.255 49.5215C101.994 49.6159 101.692 49.6631 101.347 49.6631ZM107.602 48.4717V42.0654H108.783V49.5654H107.714L107.602 48.4717ZM104.164 46.9824V46.8799C104.164 46.4795 104.211 46.1149 104.306 45.7861C104.4 45.4541 104.537 45.1693 104.716 44.9316C104.895 44.6908 105.113 44.5068 105.37 44.3799C105.627 44.2497 105.917 44.1846 106.239 44.1846C106.558 44.1846 106.838 44.2464 107.079 44.3701C107.32 44.4938 107.525 44.6712 107.694 44.9023C107.864 45.1302 107.999 45.4036 108.1 45.7227C108.201 46.0384 108.272 46.39 108.314 46.7773V47.1045C108.272 47.4821 108.201 47.8271 108.1 48.1396C107.999 48.4521 107.864 48.7223 107.694 48.9502C107.525 49.1781 107.318 49.3538 107.074 49.4775C106.833 49.6012 106.552 49.6631 106.229 49.6631C105.91 49.6631 105.622 49.5964 105.365 49.4629C105.111 49.3294 104.895 49.1423 104.716 48.9014C104.537 48.6605 104.4 48.3773 104.306 48.0518C104.211 47.723 104.164 47.3665 104.164 46.9824ZM105.341 46.8799V46.9824C105.341 47.2233 105.362 47.4479 105.404 47.6562C105.45 47.8646 105.52 48.0485 105.614 48.208C105.709 48.3643 105.831 48.488 105.98 48.5791C106.133 48.667 106.316 48.7109 106.527 48.7109C106.794 48.7109 107.014 48.6523 107.187 48.5352C107.359 48.418 107.494 48.2601 107.592 48.0615C107.693 47.8597 107.761 47.6351 107.797 47.3877V46.5039C107.777 46.3118 107.737 46.1328 107.675 45.9668C107.616 45.8008 107.536 45.6559 107.436 45.5322C107.335 45.4053 107.209 45.3076 107.06 45.2393C106.913 45.1676 106.739 45.1318 106.537 45.1318C106.322 45.1318 106.14 45.1774 105.99 45.2686C105.84 45.3597 105.717 45.485 105.619 45.6445C105.525 45.804 105.455 45.9896 105.409 46.2012C105.364 46.4128 105.341 46.639 105.341 46.8799ZM111.273 44.2822V49.5654H110.092V44.2822H111.273ZM110.014 42.8955C110.014 42.7165 110.072 42.5684 110.189 42.4512C110.31 42.3307 110.476 42.2705 110.688 42.2705C110.896 42.2705 111.06 42.3307 111.181 42.4512C111.301 42.5684 111.361 42.7165 111.361 42.8955C111.361 43.0713 111.301 43.2178 111.181 43.335C111.06 43.4521 110.896 43.5107 110.688 43.5107C110.476 43.5107 110.31 43.4521 110.189 43.335C110.072 43.2178 110.014 43.0713 110.014 42.8955ZM114.721 48.7256C114.913 48.7256 115.085 48.6882 115.238 48.6133C115.395 48.5352 115.52 48.4277 115.614 48.291C115.712 48.1543 115.766 47.9964 115.775 47.8174H116.884C116.877 48.1592 116.776 48.4701 116.581 48.75C116.386 49.0299 116.127 49.2529 115.805 49.4189C115.482 49.5817 115.126 49.6631 114.735 49.6631C114.332 49.6631 113.98 49.5947 113.681 49.458C113.381 49.318 113.132 49.126 112.934 48.8818C112.735 48.6377 112.585 48.3561 112.484 48.0371C112.387 47.7181 112.338 47.3763 112.338 47.0117V46.8408C112.338 46.4762 112.387 46.1344 112.484 45.8154C112.585 45.4932 112.735 45.21 112.934 44.9658C113.132 44.7217 113.381 44.5312 113.681 44.3945C113.98 44.2546 114.33 44.1846 114.73 44.1846C115.154 44.1846 115.525 44.2692 115.844 44.4385C116.163 44.6045 116.413 44.8372 116.596 45.1367C116.781 45.4329 116.877 45.778 116.884 46.1719H115.775C115.766 45.9766 115.717 45.8008 115.629 45.6445C115.544 45.485 115.424 45.3581 115.268 45.2637C115.115 45.1693 114.931 45.1221 114.716 45.1221C114.478 45.1221 114.281 45.1709 114.125 45.2686C113.969 45.363 113.847 45.4932 113.759 45.6592C113.671 45.8219 113.607 46.0059 113.568 46.2109C113.533 46.4128 113.515 46.6227 113.515 46.8408V47.0117C113.515 47.2298 113.533 47.4414 113.568 47.6465C113.604 47.8516 113.666 48.0355 113.754 48.1982C113.845 48.3577 113.969 48.4863 114.125 48.584C114.281 48.6784 114.48 48.7256 114.721 48.7256ZM119.047 44.2822V49.5654H117.865V44.2822H119.047ZM117.787 42.8955C117.787 42.7165 117.846 42.5684 117.963 42.4512C118.083 42.3307 118.249 42.2705 118.461 42.2705C118.669 42.2705 118.834 42.3307 118.954 42.4512C119.075 42.5684 119.135 42.7165 119.135 42.8955C119.135 43.0713 119.075 43.2178 118.954 43.335C118.834 43.4521 118.669 43.5107 118.461 43.5107C118.249 43.5107 118.083 43.4521 117.963 43.335C117.846 43.2178 117.787 43.0713 117.787 42.8955ZM121.503 45.4102V49.5654H120.326V44.2822H121.435L121.503 45.4102ZM121.293 46.7285L120.912 46.7236C120.915 46.3493 120.967 46.0059 121.068 45.6934C121.173 45.3809 121.316 45.1123 121.498 44.8877C121.684 44.6631 121.905 44.4906 122.162 44.3701C122.419 44.2464 122.706 44.1846 123.021 44.1846C123.275 44.1846 123.505 44.2204 123.71 44.292C123.918 44.3604 124.096 44.4727 124.242 44.6289C124.392 44.7852 124.506 44.9886 124.584 45.2393C124.662 45.4867 124.701 45.791 124.701 46.1523V49.5654H123.52V46.1475C123.52 45.8936 123.482 45.6934 123.407 45.5469C123.336 45.3971 123.23 45.2913 123.09 45.2295C122.953 45.1644 122.782 45.1318 122.577 45.1318C122.375 45.1318 122.195 45.1742 122.035 45.2588C121.876 45.3434 121.741 45.459 121.63 45.6055C121.522 45.752 121.439 45.9212 121.381 46.1133C121.322 46.3053 121.293 46.5104 121.293 46.7285ZM128.231 49.6631C127.841 49.6631 127.488 49.5996 127.172 49.4727C126.859 49.3424 126.592 49.1618 126.371 48.9307C126.153 48.6995 125.985 48.4277 125.868 48.1152C125.751 47.8027 125.692 47.4658 125.692 47.1045V46.9092C125.692 46.4958 125.753 46.1214 125.873 45.7861C125.993 45.4508 126.161 45.1644 126.376 44.9268C126.591 44.6859 126.845 44.502 127.138 44.375C127.431 44.248 127.748 44.1846 128.09 44.1846C128.467 44.1846 128.798 44.248 129.081 44.375C129.364 44.502 129.599 44.681 129.784 44.9121C129.973 45.14 130.113 45.4118 130.204 45.7275C130.299 46.0433 130.346 46.3916 130.346 46.7725V47.2754H126.264V46.4307H129.184V46.3379C129.177 46.1263 129.135 45.9277 129.057 45.7422C128.982 45.5566 128.866 45.4069 128.71 45.293C128.554 45.179 128.345 45.1221 128.085 45.1221C127.89 45.1221 127.715 45.1644 127.562 45.249C127.413 45.3304 127.287 45.4492 127.187 45.6055C127.086 45.7617 127.007 45.9505 126.952 46.1719C126.9 46.39 126.874 46.6357 126.874 46.9092V47.1045C126.874 47.3356 126.905 47.5505 126.967 47.749C127.032 47.9443 127.126 48.1152 127.25 48.2617C127.374 48.4082 127.523 48.5238 127.699 48.6084C127.875 48.6898 128.075 48.7305 128.3 48.7305C128.583 48.7305 128.835 48.6735 129.057 48.5596C129.278 48.4456 129.47 48.2845 129.633 48.0762L130.253 48.6768C130.139 48.8428 129.991 49.0023 129.809 49.1553C129.626 49.305 129.403 49.4271 129.14 49.5215C128.879 49.6159 128.576 49.6631 128.231 49.6631ZM137.611 47.7344C137.611 47.5879 137.589 47.4577 137.543 47.3438C137.501 47.2298 137.424 47.1257 137.313 47.0312C137.203 46.9368 137.047 46.8457 136.845 46.7578C136.646 46.6667 136.392 46.5739 136.083 46.4795C135.744 46.3753 135.432 46.2598 135.146 46.1328C134.862 46.0026 134.615 45.8529 134.403 45.6836C134.192 45.5111 134.027 45.3141 133.91 45.0928C133.793 44.8682 133.734 44.6094 133.734 44.3164C133.734 44.0267 133.795 43.763 133.915 43.5254C134.039 43.2878 134.213 43.0827 134.438 42.9102C134.665 42.7344 134.934 42.5993 135.243 42.5049C135.552 42.4072 135.894 42.3584 136.269 42.3584C136.796 42.3584 137.25 42.4561 137.631 42.6514C138.015 42.8467 138.31 43.1087 138.515 43.4375C138.723 43.7663 138.827 44.1292 138.827 44.5264H137.611C137.611 44.292 137.561 44.0853 137.46 43.9062C137.362 43.724 137.213 43.5807 137.011 43.4766C136.812 43.3724 136.56 43.3203 136.254 43.3203C135.964 43.3203 135.723 43.3643 135.531 43.4521C135.339 43.54 135.196 43.6589 135.102 43.8086C135.007 43.9583 134.96 44.1276 134.96 44.3164C134.96 44.4499 134.991 44.5719 135.053 44.6826C135.115 44.79 135.209 44.891 135.336 44.9854C135.463 45.0765 135.622 45.1628 135.814 45.2441C136.007 45.3255 136.233 45.4036 136.493 45.4785C136.887 45.5957 137.23 45.7259 137.523 45.8691C137.816 46.0091 138.061 46.1686 138.256 46.3477C138.451 46.5267 138.598 46.7301 138.695 46.958C138.793 47.1826 138.842 47.4382 138.842 47.7246C138.842 48.0241 138.782 48.2943 138.661 48.5352C138.541 48.7728 138.368 48.9762 138.144 49.1455C137.922 49.3115 137.655 49.4401 137.343 49.5312C137.034 49.6191 136.688 49.6631 136.308 49.6631C135.966 49.6631 135.629 49.6175 135.297 49.5264C134.968 49.4352 134.669 49.2969 134.398 49.1113C134.128 48.9225 133.913 48.6882 133.754 48.4082C133.594 48.125 133.515 47.7946 133.515 47.417H134.74C134.74 47.6481 134.779 47.8451 134.857 48.0078C134.939 48.1706 135.051 48.304 135.194 48.4082C135.338 48.5091 135.504 48.584 135.692 48.6328C135.884 48.6816 136.09 48.7061 136.308 48.7061C136.594 48.7061 136.833 48.6654 137.025 48.584C137.221 48.5026 137.367 48.3887 137.465 48.2422C137.562 48.0957 137.611 47.9264 137.611 47.7344ZM142.138 49.6631C141.747 49.6631 141.394 49.5996 141.078 49.4727C140.766 49.3424 140.499 49.1618 140.277 48.9307C140.059 48.6995 139.892 48.4277 139.774 48.1152C139.657 47.8027 139.599 47.4658 139.599 47.1045V46.9092C139.599 46.4958 139.659 46.1214 139.779 45.7861C139.9 45.4508 140.067 45.1644 140.282 44.9268C140.497 44.6859 140.751 44.502 141.044 44.375C141.337 44.248 141.654 44.1846 141.996 44.1846C142.374 44.1846 142.704 44.248 142.987 44.375C143.271 44.502 143.505 44.681 143.69 44.9121C143.879 45.14 144.019 45.4118 144.11 45.7275C144.205 46.0433 144.252 46.3916 144.252 46.7725V47.2754H140.17V46.4307H143.09V46.3379C143.083 46.1263 143.041 45.9277 142.963 45.7422C142.888 45.5566 142.772 45.4069 142.616 45.293C142.46 45.179 142.252 45.1221 141.991 45.1221C141.796 45.1221 141.622 45.1644 141.469 45.249C141.319 45.3304 141.194 45.4492 141.093 45.6055C140.992 45.7617 140.914 45.9505 140.858 46.1719C140.806 46.39 140.78 46.6357 140.78 46.9092V47.1045C140.78 47.3356 140.811 47.5505 140.873 47.749C140.938 47.9443 141.033 48.1152 141.156 48.2617C141.28 48.4082 141.43 48.5238 141.605 48.6084C141.781 48.6898 141.981 48.7305 142.206 48.7305C142.489 48.7305 142.742 48.6735 142.963 48.5596C143.184 48.4456 143.376 48.2845 143.539 48.0762L144.159 48.6768C144.045 48.8428 143.897 49.0023 143.715 49.1553C143.533 49.305 143.31 49.4271 143.046 49.5215C142.785 49.6159 142.483 49.6631 142.138 49.6631ZM146.352 45.2881V49.5654H145.175V44.2822H146.298L146.352 45.2881ZM147.968 44.248L147.958 45.3418C147.886 45.3288 147.808 45.319 147.724 45.3125C147.642 45.306 147.561 45.3027 147.479 45.3027C147.278 45.3027 147.1 45.332 146.947 45.3906C146.794 45.446 146.666 45.5273 146.562 45.6348C146.461 45.7389 146.382 45.8659 146.327 46.0156C146.272 46.1654 146.239 46.333 146.229 46.5186L145.961 46.5381C145.961 46.2061 145.993 45.8984 146.059 45.6152C146.124 45.332 146.221 45.083 146.352 44.8682C146.485 44.6533 146.651 44.4857 146.85 44.3652C147.051 44.2448 147.284 44.1846 147.548 44.1846C147.619 44.1846 147.696 44.1911 147.777 44.2041C147.862 44.2171 147.925 44.2318 147.968 44.248ZM150.512 48.6328L151.806 44.2822H153.026L151.19 49.5654H150.429L150.512 48.6328ZM149.521 44.2822L150.839 48.6523L150.902 49.5654H150.141L148.295 44.2822H149.521ZM155.014 44.2822V49.5654H153.832V44.2822H155.014ZM153.754 42.8955C153.754 42.7165 153.812 42.5684 153.93 42.4512C154.05 42.3307 154.216 42.2705 154.428 42.2705C154.636 42.2705 154.8 42.3307 154.921 42.4512C155.041 42.5684 155.102 42.7165 155.102 42.8955C155.102 43.0713 155.041 43.2178 154.921 43.335C154.8 43.4521 154.636 43.5107 154.428 43.5107C154.216 43.5107 154.05 43.4521 153.93 43.335C153.812 43.2178 153.754 43.0713 153.754 42.8955ZM158.461 48.7256C158.653 48.7256 158.826 48.6882 158.979 48.6133C159.135 48.5352 159.26 48.4277 159.354 48.291C159.452 48.1543 159.506 47.9964 159.516 47.8174H160.624C160.618 48.1592 160.517 48.4701 160.321 48.75C160.126 49.0299 159.867 49.2529 159.545 49.4189C159.223 49.5817 158.866 49.6631 158.476 49.6631C158.072 49.6631 157.72 49.5947 157.421 49.458C157.121 49.318 156.872 49.126 156.674 48.8818C156.475 48.6377 156.326 48.3561 156.225 48.0371C156.127 47.7181 156.078 47.3763 156.078 47.0117V46.8408C156.078 46.4762 156.127 46.1344 156.225 45.8154C156.326 45.4932 156.475 45.21 156.674 44.9658C156.872 44.7217 157.121 44.5312 157.421 44.3945C157.72 44.2546 158.07 44.1846 158.471 44.1846C158.894 44.1846 159.265 44.2692 159.584 44.4385C159.903 44.6045 160.154 44.8372 160.336 45.1367C160.521 45.4329 160.618 45.778 160.624 46.1719H159.516C159.506 45.9766 159.457 45.8008 159.369 45.6445C159.285 45.485 159.164 45.3581 159.008 45.2637C158.855 45.1693 158.671 45.1221 158.456 45.1221C158.218 45.1221 158.021 45.1709 157.865 45.2686C157.709 45.363 157.587 45.4932 157.499 45.6592C157.411 45.8219 157.348 46.0059 157.309 46.2109C157.273 46.4128 157.255 46.6227 157.255 46.8408V47.0117C157.255 47.2298 157.273 47.4414 157.309 47.6465C157.344 47.8516 157.406 48.0355 157.494 48.1982C157.585 48.3577 157.709 48.4863 157.865 48.584C158.021 48.6784 158.22 48.7256 158.461 48.7256ZM163.856 49.6631C163.466 49.6631 163.113 49.5996 162.797 49.4727C162.484 49.3424 162.217 49.1618 161.996 48.9307C161.778 48.6995 161.61 48.4277 161.493 48.1152C161.376 47.8027 161.317 47.4658 161.317 47.1045V46.9092C161.317 46.4958 161.378 46.1214 161.498 45.7861C161.618 45.4508 161.786 45.1644 162.001 44.9268C162.216 44.6859 162.47 44.502 162.763 44.375C163.056 44.248 163.373 44.1846 163.715 44.1846C164.092 44.1846 164.423 44.248 164.706 44.375C164.989 44.502 165.224 44.681 165.409 44.9121C165.598 45.14 165.738 45.4118 165.829 45.7275C165.924 46.0433 165.971 46.3916 165.971 46.7725V47.2754H161.889V46.4307H164.809V46.3379C164.802 46.1263 164.76 45.9277 164.682 45.7422C164.607 45.5566 164.491 45.4069 164.335 45.293C164.179 45.179 163.97 45.1221 163.71 45.1221C163.515 45.1221 163.34 45.1644 163.188 45.249C163.038 45.3304 162.912 45.4492 162.812 45.6055C162.711 45.7617 162.632 45.9505 162.577 46.1719C162.525 46.39 162.499 46.6357 162.499 46.9092V47.1045C162.499 47.3356 162.53 47.5505 162.592 47.749C162.657 47.9443 162.751 48.1152 162.875 48.2617C162.999 48.4082 163.148 48.5238 163.324 48.6084C163.5 48.6898 163.7 48.7305 163.925 48.7305C164.208 48.7305 164.46 48.6735 164.682 48.5596C164.903 48.4456 165.095 48.2845 165.258 48.0762L165.878 48.6768C165.764 48.8428 165.616 49.0023 165.434 49.1553C165.251 49.305 165.028 49.4271 164.765 49.5215C164.504 49.6159 164.201 49.6631 163.856 49.6631Z" fill="#000080"/>
</svg>
