<svg width="1920" height="497" viewBox="0 0 1920 497" fill="none" xmlns="http://www.w3.org/2000/svg">
<rect y="1" width="1920" height="386" fill="url(#paint0_linear_13229_120400)"/>
<mask id="mask0_13229_120400" style="mask-type:alpha" maskUnits="userSpaceOnUse" x="0" y="0" width="1920" height="497">
<rect width="1920" height="496.844" fill="url(#paint1_linear_13229_120400)"/>
</mask>
<g mask="url(#mask0_13229_120400)">
<g opacity="0.12">
<path d="M83.4923 392.271C83.4923 392.271 180.65 338.099 296.515 354.606C364.313 364.321 438.072 400.729 534.001 435.178C581.177 452.08 631.595 466.816 687.497 466.338C738.967 465.885 797.901 447.535 847.384 413.192C980.061 320.622 1036.21 189.773 1136.95 111.156C1179.14 78.4257 1231.19 57.4453 1280.41 52.2145C1334.58 46.7982 1388.9 55.0461 1443.64 66.5901C1560.72 90.9433 1664.52 122.912 1765.63 121.441C1849.32 120.2 1925.05 90.1568 1969.95 59.0866C2012.56 29.6526 2018.02 18.1027 2011.82 27.1437C2005.24 36.7629 1985.75 63.7078 1957.72 98.3722C1930.28 132.169 1894.68 172.191 1848.05 197.408C1803.06 221.646 1743.65 227.119 1697.55 218.561C1586.34 198.075 1492.04 137.281 1358.83 110.927C1302.57 99.8627 1238.63 99.4451 1180.53 125.303C1119.77 152.459 1063.04 209.2 999.309 282.552C902.716 393.921 803.306 491.091 704.457 504.88C595.154 519.906 508.459 467.917 429.148 428.687C355.643 392.198 292.566 367.508 236.299 365.816C181.802 364.48 128.581 380.572 83.4923 392.271Z" fill="url(#paint2_radial_13229_120400)"/>
<path d="M61.7463 385.61C61.7463 385.61 143.61 341.457 251.164 347.578C308.454 350.789 374.958 377.65 459.25 414.922C547.139 454.036 662.389 502.143 779.309 452.65C906.774 398.456 974.019 287.03 1048.81 202.068C1115.37 126.802 1188.63 72.3166 1261.36 58.291C1340.68 43.1001 1420.87 60.8363 1507.66 83.1229C1597.75 106.203 1684.25 134.994 1780.73 140.261C1855.49 144.368 1898.94 115.775 1912.46 101.434C1925.98 87.0926 1912.63 86.0419 1875.29 91.1855C1830.23 97.3962 1750.19 104.568 1654.34 91.0906C1544.83 75.5156 1432.07 33.9492 1315.3 22.9518C1265.36 18.3354 1215.62 23.7338 1175.91 42.4467C1133.98 62.09 1098.92 95.5903 1067.07 133.346C994.035 220.5 940.306 318.503 852.536 383.98C777.241 440.024 672.369 449.541 592.863 425.639C504.194 398.906 434.346 351.351 341.071 322.18C248.742 293.396 159.206 291.891 95.4148 304.24C32.7009 316.478 -10.8501 341.899 -33.9133 362.456C-84.9434 407.637 -53.1187 421.403 61.7463 385.61Z" fill="url(#paint3_radial_13229_120400)"/>
<path d="M84.6929 371.536C84.6929 371.536 131.481 366.384 197.222 369.001C226.419 370.094 264.195 376.731 311.398 394.607C366.498 415.72 432.239 455.942 539.936 484.055C590.781 497.34 647.126 502.926 703.459 491.547C757.952 480.52 814.216 451.048 861.358 412.306C966.405 326.147 1026.99 210.698 1122.27 126.249C1162.55 90.5922 1213.09 63.3852 1265.41 55.3384C1322.49 46.4765 1384.95 55.8614 1451.42 72.2348C1522.7 89.8412 1593.74 114.172 1668.11 134.702C1734.63 153.123 1795.41 167.166 1846.99 166.004C1846.99 166.004 1845.21 158.083 1829.8 150.109C1811.18 140.631 1770.7 130.49 1706.06 115.603C1630.72 98.3609 1533.02 72.1348 1416.76 45.1222C1308.54 19.9281 1177.32 4.29335 1093.1 64.1517C1043.32 99.6002 1010.57 146.637 978.384 193.723C944.857 242.839 915.721 288.963 880.924 329.079C819.822 399.519 726.859 441.045 645.343 438.597C551.983 435.534 473.155 400.823 383.017 371.061C305.397 345.14 207.169 331.233 84.6929 371.536Z" fill="url(#paint4_radial_13229_120400)"/>
<path d="M172.412 367.014C172.412 367.014 219.696 360.549 276.432 381.472C309.134 393.437 347.47 416.046 397.752 444.308C451.636 474.42 513.524 511.893 601.921 520.483C679.736 528.053 782.63 493.382 858.342 427.734C944.642 352.748 1006.03 258.265 1088.14 184.146C1124.37 151.49 1165.33 124.474 1208.1 110.233C1251.19 96.1216 1298.63 93.9793 1343.93 99.6518C1448.46 113.026 1540.31 155.047 1626.05 191.41C1626.05 191.41 1562.04 149.546 1424.23 105.283C1362.54 85.4693 1285.81 68.3513 1209.86 93.5633C1134.93 118.453 1065.82 193.289 986.491 287.241C905.887 382.519 823.394 457.22 740.171 480.365C656.44 503.671 578.52 483.475 512.999 458.201C380.185 407.293 288.43 341.995 172.412 367.014Z" fill="url(#paint5_radial_13229_120400)"/>
<path d="M-61.9343 355.686C-61.9343 355.686 46.3151 273.64 180.566 273.304C256.16 273.203 335.478 302.342 422.149 328.268C464.728 341.015 507.195 351.527 549.432 349.177C588.697 347.079 629.832 329.871 660.096 303.136C702.44 265.807 735.056 218.14 769.958 168.848C806.009 117.834 840.782 69.0368 881.45 27.0138C953.748 -47.3905 1060.91 -89.3833 1155.34 -90.3987C1265.01 -91.4246 1362.94 -65.8496 1460.15 -56.6162C1545.99 -48.3564 1626.46 -59.062 1675.75 -86.9981C1729.3 -117.402 1742.47 -139.229 1747.09 -139.542C1753.34 -139.916 1745.58 -122.278 1728.33 -94.6314C1711.85 -68.133 1686.14 -32.6155 1644.69 -6.2322C1606.28 18.2884 1548.56 30.941 1495.86 28.8558C1374.73 23.9452 1265.97 -25.9169 1139.55 -34.617C1085.85 -38.2036 1027.64 -29.0304 982.705 -1.32754C932.883 29.4961 894.681 80.7302 860.645 142.231C809.719 234.442 755.202 324.83 668.735 353.527C585.246 381.064 489.836 348.12 398.95 319.204C312.1 291.745 227.085 273.242 147.377 283.709C71.4621 293.894 -1.2547 326.904 -61.9343 355.686Z" fill="url(#paint6_radial_13229_120400)"/>
<path d="M-85.817 360.1C-85.817 360.1 10.7151 286.838 151.051 272.333C224.698 264.67 308.722 284.436 396.925 312.663C487.589 341.709 594.146 367.357 663.16 324.554C704.303 298.91 733.446 261.804 759.813 223.75C788.35 182.743 811.632 142.703 836.54 105.335C883.675 34.6232 935.453 -21.4083 998.559 -50.5375C1060.27 -78.7735 1134.9 -82.1991 1210.77 -72.1479C1294.15 -61.0469 1375.48 -34.5237 1474.94 -25.2859C1558.41 -17.6214 1603.78 -42.0926 1615.42 -52.338C1627.5 -62.9504 1612.2 -62.237 1576.81 -64.7654C1535.47 -67.7019 1467.03 -81.6747 1378.28 -103.365C1287.31 -125.043 1181.57 -149.811 1075.71 -119.08C973.971 -89.4151 887.076 -10.768 819.253 71.4391C749.39 156.105 703.45 237.352 638.028 291.302C588.183 332.407 511.352 343.342 434.783 324.418C351.081 303.87 265.09 266.311 153.817 246.234C64.8363 230.298 -11.852 248.235 -61.2964 276.712C-115.63 308.316 -152.674 344.947 -177.633 370.966C-228.379 423.946 -208.406 424.949 -85.817 360.1Z" fill="url(#paint7_radial_13229_120400)"/>
<path d="M-74.0242 342.346C-74.0242 342.346 -4.43963 312.771 107.991 290.994C164.206 280.106 232.47 277.113 300.183 290.131C376.377 304.598 450.471 339.238 536.918 355.513C575.712 362.756 613.037 362.201 642.328 350.415C673.335 337.857 698.092 312.587 719.013 282.791C770.069 210.188 802.861 120.867 874.59 36.4487C907.357 -2.14164 947.893 -36.9914 995.751 -58.3199C1042.65 -79.1172 1100.43 -86.5975 1158.63 -81.3582C1223.16 -75.3666 1288.68 -56.6061 1361.74 -37.7047C1431.76 -19.6796 1503.81 -2.29704 1578.59 -12.3981C1578.59 -12.3981 1560.79 -13.4265 1531.88 -20.1214C1501.51 -27.0446 1457.39 -42.9311 1399.32 -67.4908C1338.1 -93.3467 1267.43 -129.531 1171.17 -137.654C1129.31 -141.173 1081.25 -136.535 1034.61 -116.738C986.694 -96.5393 937.59 -59.6691 888.158 -11.6784C780.429 92.8439 707.411 189.834 631.296 257.507C573.03 309.439 516.319 337.468 467.365 333.438C414.421 329.062 362.339 300.315 270.725 279.706C191.892 261.942 64.1912 264.907 -74.0242 342.346Z" fill="url(#paint8_radial_13229_120400)"/>
<path d="M62.8651 307.151C62.8651 307.151 147.617 278.945 249.548 288.288C306.373 293.518 369.196 311.561 435.546 333.086C503.73 355.18 572.15 379.957 639.127 374.388C698.748 369.308 757.997 325.267 797.819 267.147C844.488 199.273 874.735 122.805 928.687 56.0737C973.689 0.451179 1049.77 -39.2632 1126.15 -38.3834C1217.55 -37.4314 1308.93 -4.51855 1416.67 17.0066C1416.67 17.0066 1324.15 -15.0837 1180.41 -39.0095C1117.86 -49.5513 1040.52 -49.8991 978.238 -16.1607C909.525 21.2212 856.038 94.2416 807.496 176.501C760.875 255.853 718.29 319.676 659.722 347.18C607.452 371.541 543.165 363.616 482.362 346.772C354.874 311.038 223.061 249.317 62.8651 307.151Z" fill="url(#paint9_radial_13229_120400)"/>
<path d="M1828.74 -31.0076C1791.98 -9.22143 1754.34 11.4755 1714.52 26.7135C1668.91 37.3992 1603.88 49.8648 1532.19 46.4493C1452.85 42.4787 1366.05 19.9218 1274.49 -0.913963C1168.56 -28.1543 1034.73 -44.8113 947.571 22.8366C838.61 107.573 806.092 213.57 747.961 291.212C723.584 323.896 697.229 349.921 666.656 363.62C638.048 376.475 603.313 378.968 568.373 374.246C470.341 356.809 375.887 315.041 254.335 287.474C152.166 264.511 71.6826 261.355 16.1241 275.85C-38.3585 290.235 -77.1228 318.338 -101.302 340.495C-153.414 388.034 -132.929 398.207 -12.4833 354.911C-12.4833 354.911 5.14361 348.008 37.5349 336.695C20.2234 343.726 10.6464 347.872 10.6464 347.872C39.798 338.715 71.2311 328.84 104.865 320.777C156.331 313.028 226.519 304.858 300.616 317.3C350.198 326.524 405.648 347.099 468.722 371.878C533.373 397.299 603.373 426.727 685.859 423.566C739.817 421.404 801.057 398.982 848.928 361.42C902.456 319.579 944 263.528 986.947 205.672C1028.3 149.91 1066.47 96.5104 1118.14 59.5782C1162.93 27.5319 1225.9 11.8474 1287.03 15.1677C1451.57 26.0453 1587.52 94.5919 1736.84 93.4158C1791.61 93.047 1851.86 75.7106 1891.27 46.9525C1933.59 15.9106 1959.28 -23.5551 1972.63 -53.2309C1985.92 -83.1148 1984.97 -102.156 1964.54 -100.969C1942.58 -99.305 1903.47 -75.1863 1828.74 -31.0076Z" fill="white"/>
<path d="M13.2605 354.048C13.2605 354.048 127.235 292.46 263.205 304.612C342.325 311.818 426.34 345.642 525.877 373.03C573.819 386.17 623.618 396.251 673.92 391.311C720.745 386.783 770.244 364.302 806.381 331.366C907.855 239.01 943.52 125.596 1026.38 54.3826C1060.15 25.5673 1104.06 6.6371 1145.96 2.30091C1192.47 -2.35333 1240.14 5.24057 1288.81 15.2269C1393.06 37.0834 1488.86 65.8665 1587.73 60.3594C1672.12 55.5532 1756.03 18.4701 1829.06 -24.4414C1903.99 -68.3992 1942.89 -92.066 1964.63 -93.4658C1985.03 -94.6751 1985.95 -75.8194 1972.63 -46.2011C1959.51 -16.8681 1933.8 22.2604 1891.24 53.1536C1851.92 81.9068 1791.67 98.9714 1736.98 99.4286C1608.29 100.538 1486.33 51.7964 1344.76 29.2361C1282.84 19.3482 1218.01 17.3519 1162.39 38.8203C1105.57 60.8912 1056.73 110.642 1010.56 173.971C936.664 275.257 859.694 374.579 758.996 403.633C658.298 432.687 556.701 394.683 464.214 362.16C375.128 330.824 293.103 308.312 216.111 311.025C143.539 313.705 72.5758 335.7 13.2605 354.048Z" fill="url(#paint10_radial_13229_120400)"/>
<path d="M-12.5259 351.008C-12.5259 351.008 87.884 296.967 223.888 296.56C297.611 296.484 380.804 320.857 476.455 352.646C573.051 384.817 695.911 413.937 787.846 360.296C896.999 296.476 940.315 196.699 996.968 120.383C1045.31 55.2974 1102.53 8.95181 1161.86 -1.33047C1228.03 -12.8581 1297.5 4.4998 1380.29 23.7853C1465.48 43.6765 1556.57 68.5112 1668.3 60.102C1764.59 52.9236 1800.9 20.1873 1798.45 10.9844C1795.88 1.36681 1759.32 10.8317 1702.75 23.8729C1645.35 36.9461 1559.28 47.7116 1467.58 34.8556C1364.89 20.4703 1262.16 -19.2919 1154.4 -24.6006C1108.52 -26.9374 1063.38 -19.3053 1028.89 -0.972439C992.25 18.4933 963.538 49.7449 938.846 84.2656C882.74 163.357 851.109 249.255 784.189 313.387C730.015 365.346 638.874 384.279 554.86 367.418C461.378 348.549 369.768 309.822 253.962 283.923C151.85 261.195 71.3878 258.179 15.8174 272.719C-38.6773 287.148 -77.4786 315.227 -101.688 337.354C-153.481 384.257 -133.016 394.366 -12.5259 351.008Z" fill="url(#paint11_radial_13229_120400)"/>
<path d="M4.95254 336.474C4.95254 336.474 71.5497 321.622 173.323 313.171C223.133 309.057 283.137 311.269 347.325 327.602C419.022 345.883 494.728 384.244 599.817 402.903C648.069 411.315 698.164 410.971 741.931 395.82C786.014 380.796 825.42 349.989 856.778 313.544C927.286 231.387 956.361 134.81 1029.02 59.9211C1058.37 29.7866 1100 5.54517 1145.97 -1.21965C1196.19 -8.64013 1254.12 -0.325851 1319.9 13.9141C1390.11 29.032 1465.07 49.9163 1552.89 61.7565C1633.76 72.6073 1723.12 73.7436 1811.09 51.476C1811.09 51.476 1784.89 53.8285 1738.63 56.8231C1689.96 60.1217 1617.39 63.2322 1534.68 53.6438C1447.73 43.8004 1353.03 16.1935 1245.91 -9.3188C1149.52 -32.3086 1028.59 -39.8462 947.998 22.3272C846.78 100.991 811.933 199.613 758.358 276.208C735.186 309.393 711.368 336.651 683.521 354.053C658.471 369.665 627.356 376.971 596.685 376.416C526.366 374.957 458.51 343.432 360.06 317.232C273.034 294.017 151.634 282.086 4.95254 336.474Z" fill="url(#paint12_radial_13229_120400)"/>
<path d="M132.303 321.721C132.303 321.721 208.525 305.389 299.92 321.637C349.726 330.515 405.703 350.887 469.111 375.749C534.351 401.172 604.869 431.308 688.262 427.979C762.854 424.924 848.32 377.87 909.075 311.049C976.729 236.579 1021.62 151.753 1091.6 87.0312C1148.31 34.7053 1239.6 10.1947 1327.3 21.4566C1431.44 34.8172 1534.7 70.5614 1651.72 88.9712C1651.72 88.9712 1547.6 65.3489 1388.43 31.0862C1314.63 15.2048 1231.07 0.126243 1154.8 22.8554C1080.81 44.8627 1017.95 113.031 961.809 196.399C902.779 284.096 843.364 357.331 769.359 388.686C700.054 418.101 622.653 408.826 554.698 390.186C411.973 350.502 292.316 284.615 132.303 321.721Z" fill="url(#paint13_radial_13229_120400)"/>
</g>
</g>
<defs>
<linearGradient id="paint0_linear_13229_120400" x1="960" y1="1" x2="960" y2="387" gradientUnits="userSpaceOnUse">
<stop stop-color="#A5E6EF" stop-opacity="0.2"/>
<stop offset="1" stop-color="#DBDCDC" stop-opacity="0"/>
</linearGradient>
<linearGradient id="paint1_linear_13229_120400" x1="960" y1="0" x2="960" y2="496.844" gradientUnits="userSpaceOnUse">
<stop stop-color="#F5FAFF"/>
<stop offset="1" stop-color="#F5FAFF" stop-opacity="0"/>
</linearGradient>
<radialGradient id="paint2_radial_13229_120400" cx="0" cy="0" r="1" gradientUnits="userSpaceOnUse" gradientTransform="translate(968.463 684.053) rotate(-13.8166) scale(1866.22 1199.34)">
<stop stop-color="#D5E305"/>
<stop offset="0.4731" stop-color="#51B800"/>
<stop offset="1" stop-color="#1D5500"/>
</radialGradient>
<radialGradient id="paint3_radial_13229_120400" cx="0" cy="0" r="1" gradientUnits="userSpaceOnUse" gradientTransform="translate(1023.62 -98.4031) rotate(-13.8318) scale(1555.26 1000.57)">
<stop stop-color="#D5E305"/>
<stop offset="0.4731" stop-color="#51B800"/>
<stop offset="1" stop-color="#1D5500"/>
</radialGradient>
<radialGradient id="paint4_radial_13229_120400" cx="0" cy="0" r="1" gradientUnits="userSpaceOnUse" gradientTransform="translate(1100.05 -26.3772) rotate(-13.8468) scale(1523.36 981.091)">
<stop stop-color="#D5E305"/>
<stop offset="0.4731" stop-color="#51B800"/>
<stop offset="1" stop-color="#1D5500"/>
</radialGradient>
<radialGradient id="paint5_radial_13229_120400" cx="0" cy="0" r="1" gradientUnits="userSpaceOnUse" gradientTransform="translate(573.675 -721.821) rotate(-13.8827) scale(2500.09 1614.23)">
<stop stop-color="#D5E305"/>
<stop offset="0.4731" stop-color="#51B800"/>
<stop offset="1" stop-color="#1D5500"/>
</radialGradient>
<radialGradient id="paint6_radial_13229_120400" cx="0" cy="0" r="1" gradientUnits="userSpaceOnUse" gradientTransform="translate(1010.98 601.516) rotate(-24.1782) scale(1775.98 1146)">
<stop offset="0.0430108" stop-color="#FFC800"/>
<stop offset="1" stop-color="#FF9500"/>
</radialGradient>
<radialGradient id="paint7_radial_13229_120400" cx="0" cy="0" r="1" gradientUnits="userSpaceOnUse" gradientTransform="translate(580.855 -245.523) rotate(-24.2056) scale(1652.59 1067.32)">
<stop offset="0.0430108" stop-color="#FFC800"/>
<stop offset="1" stop-color="#FF9500"/>
</radialGradient>
<radialGradient id="paint8_radial_13229_120400" cx="0" cy="0" r="1" gradientUnits="userSpaceOnUse" gradientTransform="translate(750.654 -119.149) rotate(-24.3617) scale(1483.22 962.723)">
<stop offset="0.0430108" stop-color="#FFC800"/>
<stop offset="1" stop-color="#FF9500"/>
</radialGradient>
<radialGradient id="paint9_radial_13229_120400" cx="0" cy="0" r="1" gradientUnits="userSpaceOnUse" gradientTransform="translate(-59.0829 -761.462) rotate(-24.3865) scale(2611.45 1696.37)">
<stop offset="0.0430108" stop-color="#FFC800"/>
<stop offset="1" stop-color="#FF9500"/>
</radialGradient>
<radialGradient id="paint10_radial_13229_120400" cx="0" cy="0" r="1" gradientUnits="userSpaceOnUse" gradientTransform="translate(979.836 585.626) rotate(-17.3866) scale(1892.93 1192.65)">
<stop stop-color="#F1F1F1"/>
<stop offset="0.4731" stop-color="#EBEBEB"/>
<stop offset="1" stop-color="#E1E1E1"/>
</radialGradient>
<radialGradient id="paint11_radial_13229_120400" cx="0" cy="0" r="1" gradientUnits="userSpaceOnUse" gradientTransform="translate(865.65 -177.784) rotate(-17.4682) scale(1561.71 988.217)">
<stop stop-color="#F1F1F1"/>
<stop offset="0.4731" stop-color="#EBEBEB"/>
<stop offset="1" stop-color="#E1E1E1"/>
</radialGradient>
<radialGradient id="paint12_radial_13229_120400" cx="0" cy="0" r="1" gradientUnits="userSpaceOnUse" gradientTransform="translate(1009.78 -80.0853) rotate(-17.4876) scale(1491.92 945.015)">
<stop stop-color="#F1F1F1"/>
<stop offset="0.4731" stop-color="#EBEBEB"/>
<stop offset="1" stop-color="#E1E1E1"/>
</radialGradient>
<radialGradient id="paint13_radial_13229_120400" cx="0" cy="0" r="1" gradientUnits="userSpaceOnUse" gradientTransform="translate(407.184 -729.25) rotate(-17.5321) scale(2499.25 1586.78)">
<stop stop-color="#F1F1F1"/>
<stop offset="0.4731" stop-color="#EBEBEB"/>
<stop offset="1" stop-color="#E1E1E1"/>
</radialGradient>
</defs>
</svg>
